<?xml version="1.0" encoding="utf-8" standalone="no"?>
<!DOCTYPE svg PUBLIC "-//W3C//DTD SVG 1.1//EN"
  "http://www.w3.org/Graphics/SVG/1.1/DTD/svg11.dtd">
<svg xmlns:xlink="http://www.w3.org/1999/xlink" width="460.8pt" height="345.6pt" viewBox="0 0 460.8 345.6" xmlns="http://www.w3.org/2000/svg" version="1.1">
 <metadata>
  <rdf:RDF xmlns:dc="http://purl.org/dc/elements/1.1/" xmlns:cc="http://creativecommons.org/ns#" xmlns:rdf="http://www.w3.org/1999/02/22-rdf-syntax-ns#">
   <cc:Work>
    <dc:type rdf:resource="http://purl.org/dc/dcmitype/StillImage"/>
    <dc:date>2023-05-12T21:00:32.064259</dc:date>
    <dc:format>image/svg+xml</dc:format>
    <dc:creator>
     <cc:Agent>
      <dc:title>Matplotlib v3.7.1, https://matplotlib.org/</dc:title>
     </cc:Agent>
    </dc:creator>
   </cc:Work>
  </rdf:RDF>
 </metadata>
 <defs>
  <style type="text/css">*{stroke-linejoin: round; stroke-linecap: butt}</style>
 </defs>
 <g id="figure_1">
  <g id="patch_1">
   <path d="M 0 345.6 
L 460.8 345.6 
L 460.8 0 
L 0 0 
z
" style="fill: #ffffff"/>
  </g>
  <g id="axes_1">
   <g id="LineCollection_1">
    <path d="M 121.791971 106.750543 
L 155.349507 119.094098 
" clip-path="url(#p4d8349b8e7)" style="fill: none; stroke: #000000"/>
    <path d="M 121.791971 106.750543 
L 98.878425 94.201703 
" clip-path="url(#p4d8349b8e7)" style="fill: none; stroke: #000000"/>
    <path d="M 155.349507 119.094098 
L 198.832387 130.484858 
" clip-path="url(#p4d8349b8e7)" style="fill: none; stroke: #000000"/>
    <path d="M 198.832387 130.484858 
L 173.020491 139.610196 
" clip-path="url(#p4d8349b8e7)" style="fill: none; stroke: #000000"/>
    <path d="M 198.832387 130.484858 
L 203.950587 138.762902 
" clip-path="url(#p4d8349b8e7)" style="fill: none; stroke: #000000"/>
    <path d="M 198.832387 130.484858 
L 257.214634 131.535532 
" clip-path="url(#p4d8349b8e7)" style="fill: none; stroke: #000000"/>
    <path d="M 173.020491 139.610196 
L 178.034783 147.244349 
" clip-path="url(#p4d8349b8e7)" style="fill: none; stroke: #000000"/>
    <path d="M 88.589752 82.92381 
L 98.878425 94.201703 
" clip-path="url(#p4d8349b8e7)" style="fill: none; stroke: #000000"/>
    <path d="M 241.742056 87.396159 
L 229.56266 104.24816 
" clip-path="url(#p4d8349b8e7)" style="fill: none; stroke: #000000"/>
    <path d="M 241.742056 87.396159 
L 263.02501 73.5321 
" clip-path="url(#p4d8349b8e7)" style="fill: none; stroke: #000000"/>
    <path d="M 241.742056 87.396159 
L 226.444171 79.030752 
" clip-path="url(#p4d8349b8e7)" style="fill: none; stroke: #000000"/>
    <path d="M 229.56266 104.24816 
L 217.099641 121.446186 
" clip-path="url(#p4d8349b8e7)" style="fill: none; stroke: #000000"/>
    <path d="M 217.099641 121.446186 
L 203.950587 138.762902 
" clip-path="url(#p4d8349b8e7)" style="fill: none; stroke: #000000"/>
    <path d="M 208.387988 151.935471 
L 203.950587 138.762902 
" clip-path="url(#p4d8349b8e7)" style="fill: none; stroke: #000000"/>
    <path d="M 203.950587 138.762902 
L 178.034783 147.244349 
" clip-path="url(#p4d8349b8e7)" style="fill: none; stroke: #000000"/>
    <path d="M 279.4239 61.499686 
L 263.02501 73.5321 
" clip-path="url(#p4d8349b8e7)" style="fill: none; stroke: #000000"/>
    <path d="M 279.4239 61.499686 
L 292.57691 51.968529 
" clip-path="url(#p4d8349b8e7)" style="fill: none; stroke: #000000"/>
    <path d="M 352.206339 125.901345 
L 308.955696 129.829117 
" clip-path="url(#p4d8349b8e7)" style="fill: none; stroke: #000000"/>
    <path d="M 352.206339 125.901345 
L 383.730248 120.624897 
" clip-path="url(#p4d8349b8e7)" style="fill: none; stroke: #000000"/>
    <path d="M 308.955696 129.829117 
L 257.214634 131.535532 
" clip-path="url(#p4d8349b8e7)" style="fill: none; stroke: #000000"/>
   </g>
   <g id="LineCollection_2">
    <path d="M 121.791971 106.750543 
L 155.349507 119.094098 
" clip-path="url(#p4d8349b8e7)" style="fill: none; stroke: #000000"/>
    <path d="M 121.791971 106.750543 
L 98.878425 94.201703 
" clip-path="url(#p4d8349b8e7)" style="fill: none; stroke: #000000"/>
    <path d="M 155.349507 119.094098 
L 198.832387 130.484858 
" clip-path="url(#p4d8349b8e7)" style="fill: none; stroke: #000000"/>
    <path d="M 198.832387 130.484858 
L 173.020491 139.610196 
" clip-path="url(#p4d8349b8e7)" style="fill: none; stroke: #000000"/>
    <path d="M 198.832387 130.484858 
L 203.950587 138.762902 
" clip-path="url(#p4d8349b8e7)" style="fill: none; stroke: #000000"/>
    <path d="M 198.832387 130.484858 
L 257.214634 131.535532 
" clip-path="url(#p4d8349b8e7)" style="fill: none; stroke: #000000"/>
    <path d="M 173.020491 139.610196 
L 178.034783 147.244349 
" clip-path="url(#p4d8349b8e7)" style="fill: none; stroke: #000000"/>
    <path d="M 88.589752 82.92381 
L 98.878425 94.201703 
" clip-path="url(#p4d8349b8e7)" style="fill: none; stroke: #000000"/>
    <path d="M 241.742056 87.396159 
L 229.56266 104.24816 
" clip-path="url(#p4d8349b8e7)" style="fill: none; stroke: #000000"/>
    <path d="M 241.742056 87.396159 
L 263.02501 73.5321 
" clip-path="url(#p4d8349b8e7)" style="fill: none; stroke: #000000"/>
    <path d="M 241.742056 87.396159 
L 226.444171 79.030752 
" clip-path="url(#p4d8349b8e7)" style="fill: none; stroke: #000000"/>
    <path d="M 229.56266 104.24816 
L 217.099641 121.446186 
" clip-path="url(#p4d8349b8e7)" style="fill: none; stroke: #000000"/>
    <path d="M 217.099641 121.446186 
L 203.950587 138.762902 
" clip-path="url(#p4d8349b8e7)" style="fill: none; stroke: #000000"/>
    <path d="M 208.387988 151.935471 
L 203.950587 138.762902 
" clip-path="url(#p4d8349b8e7)" style="fill: none; stroke: #000000"/>
    <path d="M 203.950587 138.762902 
L 178.034783 147.244349 
" clip-path="url(#p4d8349b8e7)" style="fill: none; stroke: #000000"/>
    <path d="M 279.4239 61.499686 
L 263.02501 73.5321 
" clip-path="url(#p4d8349b8e7)" style="fill: none; stroke: #000000"/>
    <path d="M 279.4239 61.499686 
L 292.57691 51.968529 
" clip-path="url(#p4d8349b8e7)" style="fill: none; stroke: #000000"/>
    <path d="M 352.206339 125.901345 
L 308.955696 129.829117 
" clip-path="url(#p4d8349b8e7)" style="fill: none; stroke: #000000"/>
    <path d="M 352.206339 125.901345 
L 383.730248 120.624897 
" clip-path="url(#p4d8349b8e7)" style="fill: none; stroke: #000000"/>
    <path d="M 308.955696 129.829117 
L 257.214634 131.535532 
" clip-path="url(#p4d8349b8e7)" style="fill: none; stroke: #000000"/>
   </g>
   <g id="PathCollection_1">
    <path d="M 121.791971 109.912821 
C 122.630617 109.912821 123.435027 109.579624 124.028039 108.986611 
C 124.621051 108.393599 124.954249 107.589189 124.954249 106.750543 
C 124.954249 105.911898 124.621051 105.107488 124.028039 104.514476 
C 123.435027 103.921463 122.630617 103.588266 121.791971 103.588266 
C 120.953325 103.588266 120.148915 103.921463 119.555903 104.514476 
C 118.962891 105.107488 118.629693 105.911898 118.629693 106.750543 
C 118.629693 107.589189 118.962891 108.393599 119.555903 108.986611 
C 120.148915 109.579624 120.953325 109.912821 121.791971 109.912821 
z
" clip-path="url(#p4d8349b8e7)" style="fill: #31688e; stroke: #31688e"/>
    <path d="M 155.349507 122.256375 
C 156.188153 122.256375 156.992563 121.923178 157.585575 121.330166 
C 158.178587 120.737153 158.511785 119.932743 158.511785 119.094098 
C 158.511785 118.255452 158.178587 117.451042 157.585575 116.85803 
C 156.992563 116.265017 156.188153 115.93182 155.349507 115.93182 
C 154.510861 115.93182 153.706451 116.265017 153.113439 116.85803 
C 152.520427 117.451042 152.187229 118.255452 152.187229 119.094098 
C 152.187229 119.932743 152.520427 120.737153 153.113439 121.330166 
C 153.706451 121.923178 154.510861 122.256375 155.349507 122.256375 
z
" clip-path="url(#p4d8349b8e7)" style="fill: #31688e; stroke: #31688e"/>
    <path d="M 198.832387 134.956994 
C 200.018411 134.956994 201.156019 134.485781 201.994665 133.647135 
C 202.833311 132.808489 203.304523 131.670882 203.304523 130.484858 
C 203.304523 129.298833 202.833311 128.161226 201.994665 127.32258 
C 201.156019 126.483934 200.018411 126.012722 198.832387 126.012722 
C 197.646363 126.012722 196.508755 126.483934 195.670109 127.32258 
C 194.831464 128.161226 194.360251 129.298833 194.360251 130.484858 
C 194.360251 131.670882 194.831464 132.808489 195.670109 133.647135 
C 196.508755 134.485781 197.646363 134.956994 198.832387 134.956994 
z
" clip-path="url(#p4d8349b8e7)" style="fill: #fde725; stroke: #fde725"/>
    <path d="M 173.020491 142.772473 
C 173.859137 142.772473 174.663547 142.439276 175.256559 141.846263 
C 175.849571 141.253251 176.182769 140.448841 176.182769 139.610196 
C 176.182769 138.77155 175.849571 137.96714 175.256559 137.374128 
C 174.663547 136.781115 173.859137 136.447918 173.020491 136.447918 
C 172.181845 136.447918 171.377435 136.781115 170.784423 137.374128 
C 170.191411 137.96714 169.858213 138.77155 169.858213 139.610196 
C 169.858213 140.448841 170.191411 141.253251 170.784423 141.846263 
C 171.377435 142.439276 172.181845 142.772473 173.020491 142.772473 
z
" clip-path="url(#p4d8349b8e7)" style="fill: #31688e; stroke: #31688e"/>
    <path d="M 88.589752 85.159878 
C 89.182764 85.159878 89.751568 84.924272 90.170891 84.504949 
C 90.590214 84.085626 90.82582 83.516823 90.82582 82.92381 
C 90.82582 82.330798 90.590214 81.761995 90.170891 81.342672 
C 89.751568 80.923349 89.182764 80.687742 88.589752 80.687742 
C 87.99674 80.687742 87.427936 80.923349 87.008613 81.342672 
C 86.58929 81.761995 86.353684 82.330798 86.353684 82.92381 
C 86.353684 83.516823 86.58929 84.085626 87.008613 84.504949 
C 87.427936 84.924272 87.99674 85.159878 88.589752 85.159878 
z
" clip-path="url(#p4d8349b8e7)" style="fill: #440154; stroke: #440154"/>
    <path d="M 241.742056 91.269142 
C 242.769183 91.269142 243.75438 90.86106 244.480669 90.134771 
C 245.206958 89.408483 245.615039 88.423286 245.615039 87.396159 
C 245.615039 86.369031 245.206958 85.383834 244.480669 84.657546 
C 243.75438 83.931257 242.769183 83.523175 241.742056 83.523175 
C 240.714929 83.523175 239.729732 83.931257 239.003443 84.657546 
C 238.277155 85.383834 237.869073 86.369031 237.869073 87.396159 
C 237.869073 88.423286 238.277155 89.408483 239.003443 90.134771 
C 239.729732 90.86106 240.714929 91.269142 241.742056 91.269142 
z
" clip-path="url(#p4d8349b8e7)" style="fill: #35b779; stroke: #35b779"/>
    <path d="M 229.56266 107.410438 
C 230.401305 107.410438 231.205715 107.07724 231.798728 106.484228 
C 232.39174 105.891216 232.724937 105.086806 232.724937 104.24816 
C 232.724937 103.409514 232.39174 102.605104 231.798728 102.012092 
C 231.205715 101.41908 230.401305 101.085882 229.56266 101.085882 
C 228.724014 101.085882 227.919604 101.41908 227.326592 102.012092 
C 226.733579 102.605104 226.400382 103.409514 226.400382 104.24816 
C 226.400382 105.086806 226.733579 105.891216 227.326592 106.484228 
C 227.919604 107.07724 228.724014 107.410438 229.56266 107.410438 
z
" clip-path="url(#p4d8349b8e7)" style="fill: #31688e; stroke: #31688e"/>
    <path d="M 217.099641 124.608464 
C 217.938287 124.608464 218.742697 124.275266 219.335709 123.682254 
C 219.928721 123.089242 220.261919 122.284832 220.261919 121.446186 
C 220.261919 120.60754 219.928721 119.80313 219.335709 119.210118 
C 218.742697 118.617106 217.938287 118.283909 217.099641 118.283909 
C 216.260995 118.283909 215.456585 118.617106 214.863573 119.210118 
C 214.270561 119.80313 213.937364 120.60754 213.937364 121.446186 
C 213.937364 122.284832 214.270561 123.089242 214.863573 123.682254 
C 215.456585 124.275266 216.260995 124.608464 217.099641 124.608464 
z
" clip-path="url(#p4d8349b8e7)" style="fill: #31688e; stroke: #31688e"/>
    <path d="M 208.387988 154.171539 
C 208.981001 154.171539 209.549804 153.935933 209.969127 153.51661 
C 210.38845 153.097287 210.624056 152.528483 210.624056 151.935471 
C 210.624056 151.342459 210.38845 150.773655 209.969127 150.354332 
C 209.549804 149.935009 208.981001 149.699403 208.387988 149.699403 
C 207.794976 149.699403 207.226173 149.935009 206.80685 150.354332 
C 206.387527 150.773655 206.15192 151.342459 206.15192 151.935471 
C 206.15192 152.528483 206.387527 153.097287 206.80685 153.51661 
C 207.226173 153.935933 207.794976 154.171539 208.387988 154.171539 
z
" clip-path="url(#p4d8349b8e7)" style="fill: #440154; stroke: #440154"/>
    <path d="M 203.950587 143.235038 
C 205.136611 143.235038 206.274219 142.763826 207.112865 141.92518 
C 207.951511 141.086534 208.422723 139.948926 208.422723 138.762902 
C 208.422723 137.576878 207.951511 136.43927 207.112865 135.600624 
C 206.274219 134.761979 205.136611 134.290766 203.950587 134.290766 
C 202.764563 134.290766 201.626955 134.761979 200.78831 135.600624 
C 199.949664 136.43927 199.478451 137.576878 199.478451 138.762902 
C 199.478451 139.948926 199.949664 141.086534 200.78831 141.92518 
C 201.626955 142.763826 202.764563 143.235038 203.950587 143.235038 
z
" clip-path="url(#p4d8349b8e7)" style="fill: #fde725; stroke: #fde725"/>
    <path d="M 98.878425 97.363981 
C 99.717071 97.363981 100.521481 97.030783 101.114493 96.437771 
C 101.707505 95.844759 102.040703 95.040349 102.040703 94.201703 
C 102.040703 93.363057 101.707505 92.558647 101.114493 91.965635 
C 100.521481 91.372623 99.717071 91.039425 98.878425 91.039425 
C 98.039779 91.039425 97.235369 91.372623 96.642357 91.965635 
C 96.049345 92.558647 95.716147 93.363057 95.716147 94.201703 
C 95.716147 95.040349 96.049345 95.844759 96.642357 96.437771 
C 97.235369 97.030783 98.039779 97.363981 98.878425 97.363981 
z
" clip-path="url(#p4d8349b8e7)" style="fill: #31688e; stroke: #31688e"/>
    <path d="M 279.4239 64.661964 
C 280.262546 64.661964 281.066956 64.328766 281.659968 63.735754 
C 282.25298 63.142742 282.586178 62.338332 282.586178 61.499686 
C 282.586178 60.66104 282.25298 59.85663 281.659968 59.263618 
C 281.066956 58.670606 280.262546 58.337409 279.4239 58.337409 
C 278.585254 58.337409 277.780844 58.670606 277.187832 59.263618 
C 276.59482 59.85663 276.261622 60.66104 276.261622 61.499686 
C 276.261622 62.338332 276.59482 63.142742 277.187832 63.735754 
C 277.780844 64.328766 278.585254 64.661964 279.4239 64.661964 
z
" clip-path="url(#p4d8349b8e7)" style="fill: #31688e; stroke: #31688e"/>
    <path d="M 352.206339 129.063623 
C 353.044985 129.063623 353.849395 128.730425 354.442407 128.137413 
C 355.035419 127.544401 355.368617 126.739991 355.368617 125.901345 
C 355.368617 125.062699 355.035419 124.258289 354.442407 123.665277 
C 353.849395 123.072265 353.044985 122.739067 352.206339 122.739067 
C 351.367693 122.739067 350.563283 123.072265 349.970271 123.665277 
C 349.377259 124.258289 349.044062 125.062699 349.044062 125.901345 
C 349.044062 126.739991 349.377259 127.544401 349.970271 128.137413 
C 350.563283 128.730425 351.367693 129.063623 352.206339 129.063623 
z
" clip-path="url(#p4d8349b8e7)" style="fill: #31688e; stroke: #31688e"/>
    <path d="M 308.955696 132.991395 
C 309.794342 132.991395 310.598752 132.658198 311.191764 132.065185 
C 311.784776 131.472173 312.117974 130.667763 312.117974 129.829117 
C 312.117974 128.990472 311.784776 128.186062 311.191764 127.593049 
C 310.598752 127.000037 309.794342 126.66684 308.955696 126.66684 
C 308.11705 126.66684 307.31264 127.000037 306.719628 127.593049 
C 306.126616 128.186062 305.793418 128.990472 305.793418 129.829117 
C 305.793418 130.667763 306.126616 131.472173 306.719628 132.065185 
C 307.31264 132.658198 308.11705 132.991395 308.955696 132.991395 
z
" clip-path="url(#p4d8349b8e7)" style="fill: #31688e; stroke: #31688e"/>
    <path d="M 257.214634 134.69781 
C 258.05328 134.69781 258.85769 134.364612 259.450702 133.7716 
C 260.043715 133.178588 260.376912 132.374178 260.376912 131.535532 
C 260.376912 130.696886 260.043715 129.892476 259.450702 129.299464 
C 258.85769 128.706452 258.05328 128.373254 257.214634 128.373254 
C 256.375989 128.373254 255.571579 128.706452 254.978566 129.299464 
C 254.385554 129.892476 254.052357 130.696886 254.052357 131.535532 
C 254.052357 132.374178 254.385554 133.178588 254.978566 133.7716 
C 255.571579 134.364612 256.375989 134.69781 257.214634 134.69781 
z
" clip-path="url(#p4d8349b8e7)" style="fill: #31688e; stroke: #31688e"/>
    <path d="M 292.57691 54.204597 
C 293.169922 54.204597 293.738726 53.968991 294.158048 53.549668 
C 294.577371 53.130345 294.812978 52.561541 294.812978 51.968529 
C 294.812978 51.375517 294.577371 50.806713 294.158048 50.38739 
C 293.738726 49.968067 293.169922 49.732461 292.57691 49.732461 
C 291.983897 49.732461 291.415094 49.968067 290.995771 50.38739 
C 290.576448 50.806713 290.340842 51.375517 290.340842 51.968529 
C 290.340842 52.561541 290.576448 53.130345 290.995771 53.549668 
C 291.415094 53.968991 291.983897 54.204597 292.57691 54.204597 
z
" clip-path="url(#p4d8349b8e7)" style="fill: #440154; stroke: #440154"/>
    <path d="M 383.730248 122.860965 
C 384.32326 122.860965 384.892064 122.625359 385.311387 122.206036 
C 385.73071 121.786713 385.966316 121.217909 385.966316 120.624897 
C 385.966316 120.031885 385.73071 119.463081 385.311387 119.043758 
C 384.892064 118.624435 384.32326 118.388829 383.730248 118.388829 
C 383.137236 118.388829 382.568432 118.624435 382.149109 119.043758 
C 381.729786 119.463081 381.49418 120.031885 381.49418 120.624897 
C 381.49418 121.217909 381.729786 121.786713 382.149109 122.206036 
C 382.568432 122.625359 383.137236 122.860965 383.730248 122.860965 
z
" clip-path="url(#p4d8349b8e7)" style="fill: #440154; stroke: #440154"/>
    <path d="M 263.02501 76.694378 
C 263.863656 76.694378 264.668066 76.36118 265.261078 75.768168 
C 265.85409 75.175156 266.187288 74.370746 266.187288 73.5321 
C 266.187288 72.693454 265.85409 71.889044 265.261078 71.296032 
C 264.668066 70.70302 263.863656 70.369822 263.02501 70.369822 
C 262.186364 70.369822 261.381954 70.70302 260.788942 71.296032 
C 260.19593 71.889044 259.862733 72.693454 259.862733 73.5321 
C 259.862733 74.370746 260.19593 75.175156 260.788942 75.768168 
C 261.381954 76.36118 262.186364 76.694378 263.02501 76.694378 
z
" clip-path="url(#p4d8349b8e7)" style="fill: #31688e; stroke: #31688e"/>
    <path d="M 178.034783 150.406627 
C 178.873428 150.406627 179.677838 150.07343 180.270851 149.480417 
C 180.863863 148.887405 181.19706 148.082995 181.19706 147.244349 
C 181.19706 146.405704 180.863863 145.601294 180.270851 145.008281 
C 179.677838 144.415269 178.873428 144.082072 178.034783 144.082072 
C 177.196137 144.082072 176.391727 144.415269 175.798715 145.008281 
C 175.205702 145.601294 174.872505 146.405704 174.872505 147.244349 
C 174.872505 148.082995 175.205702 148.887405 175.798715 149.480417 
C 176.391727 150.07343 177.196137 150.406627 178.034783 150.406627 
z
" clip-path="url(#p4d8349b8e7)" style="fill: #31688e; stroke: #31688e"/>
    <path d="M 226.444171 81.26682 
C 227.037183 81.26682 227.605987 81.031214 228.02531 80.611891 
C 228.444633 80.192568 228.680239 79.623764 228.680239 79.030752 
C 228.680239 78.43774 228.444633 77.868936 228.02531 77.449613 
C 227.605987 77.03029 227.037183 76.794684 226.444171 76.794684 
C 225.851159 76.794684 225.282355 77.03029 224.863032 77.449613 
C 224.443709 77.868936 224.208103 78.43774 224.208103 79.030752 
C 224.208103 79.623764 224.443709 80.192568 224.863032 80.611891 
C 225.282355 81.031214 225.851159 81.26682 226.444171 81.26682 
z
" clip-path="url(#p4d8349b8e7)" style="fill: #440154; stroke: #440154"/>
   </g>
   <g id="PathCollection_2">
    <path d="M 121.791971 107.750543 
C 122.057174 107.750543 122.311551 107.645177 122.499078 107.45765 
C 122.686605 107.270123 122.791971 107.015747 122.791971 106.750543 
C 122.791971 106.48534 122.686605 106.230964 122.499078 106.043437 
C 122.311551 105.85591 122.057174 105.750543 121.791971 105.750543 
C 121.526768 105.750543 121.272391 105.85591 121.084864 106.043437 
C 120.897337 106.230964 120.791971 106.48534 120.791971 106.750543 
C 120.791971 107.015747 120.897337 107.270123 121.084864 107.45765 
C 121.272391 107.645177 121.526768 107.750543 121.791971 107.750543 
z
" clip-path="url(#p4d8349b8e7)" style="fill: #ffffff; stroke: #ffffff"/>
    <path d="M 155.349507 120.094098 
C 155.61471 120.094098 155.869087 119.988731 156.056614 119.801204 
C 156.244141 119.613677 156.349507 119.359301 156.349507 119.094098 
C 156.349507 118.828894 156.244141 118.574518 156.056614 118.386991 
C 155.869087 118.199464 155.61471 118.094098 155.349507 118.094098 
C 155.084304 118.094098 154.829927 118.199464 154.6424 118.386991 
C 154.454873 118.574518 154.349507 118.828894 154.349507 119.094098 
C 154.349507 119.359301 154.454873 119.613677 154.6424 119.801204 
C 154.829927 119.988731 155.084304 120.094098 155.349507 120.094098 
z
" clip-path="url(#p4d8349b8e7)" style="fill: #ffffff; stroke: #ffffff"/>
    <path d="M 198.832387 131.899071 
C 199.207441 131.899071 199.567184 131.750061 199.832387 131.484858 
C 200.09759 131.219654 200.246601 130.859911 200.246601 130.484858 
C 200.246601 130.109804 200.09759 129.750061 199.832387 129.484858 
C 199.567184 129.219654 199.207441 129.070644 198.832387 129.070644 
C 198.457333 129.070644 198.09759 129.219654 197.832387 129.484858 
C 197.567184 129.750061 197.418173 130.109804 197.418173 130.484858 
C 197.418173 130.859911 197.567184 131.219654 197.832387 131.484858 
C 198.09759 131.750061 198.457333 131.899071 198.832387 131.899071 
z
" clip-path="url(#p4d8349b8e7)" style="fill: #ffffff; stroke: #ffffff"/>
    <path d="M 173.020491 140.610196 
C 173.285694 140.610196 173.540071 140.504829 173.727598 140.317302 
C 173.915125 140.129775 174.020491 139.875399 174.020491 139.610196 
C 174.020491 139.344992 173.915125 139.090616 173.727598 138.903089 
C 173.540071 138.715562 173.285694 138.610196 173.020491 138.610196 
C 172.755288 138.610196 172.500911 138.715562 172.313384 138.903089 
C 172.125857 139.090616 172.020491 139.344992 172.020491 139.610196 
C 172.020491 139.875399 172.125857 140.129775 172.313384 140.317302 
C 172.500911 140.504829 172.755288 140.610196 173.020491 140.610196 
z
" clip-path="url(#p4d8349b8e7)" style="fill: #ffffff; stroke: #ffffff"/>
    <path d="M 88.589752 83.630917 
C 88.777279 83.630917 88.957151 83.556412 89.089752 83.42381 
C 89.222354 83.291209 89.296859 83.111337 89.296859 82.92381 
C 89.296859 82.736284 89.222354 82.556412 89.089752 82.42381 
C 88.957151 82.291209 88.777279 82.216704 88.589752 82.216704 
C 88.402225 82.216704 88.222354 82.291209 88.089752 82.42381 
C 87.957151 82.556412 87.882645 82.736284 87.882645 82.92381 
C 87.882645 83.111337 87.957151 83.291209 88.089752 83.42381 
C 88.222354 83.556412 88.402225 83.630917 88.589752 83.630917 
z
" clip-path="url(#p4d8349b8e7)" style="fill: #ffffff; stroke: #ffffff"/>
    <path d="M 241.742056 88.620903 
C 242.066862 88.620903 242.378409 88.491857 242.608082 88.262184 
C 242.837754 88.032511 242.966801 87.720965 242.966801 87.396159 
C 242.966801 87.071352 242.837754 86.759806 242.608082 86.530133 
C 242.378409 86.300461 242.066862 86.171414 241.742056 86.171414 
C 241.41725 86.171414 241.105703 86.300461 240.876031 86.530133 
C 240.646358 86.759806 240.517311 87.071352 240.517311 87.396159 
C 240.517311 87.720965 240.646358 88.032511 240.876031 88.262184 
C 241.105703 88.491857 241.41725 88.620903 241.742056 88.620903 
z
" clip-path="url(#p4d8349b8e7)" style="fill: #ffffff; stroke: #ffffff"/>
    <path d="M 229.56266 105.24816 
C 229.827863 105.24816 230.082239 105.142794 230.269766 104.955267 
C 230.457293 104.76774 230.56266 104.513363 230.56266 104.24816 
C 230.56266 103.982957 230.457293 103.72858 230.269766 103.541053 
C 230.082239 103.353526 229.827863 103.24816 229.56266 103.24816 
C 229.297456 103.24816 229.04308 103.353526 228.855553 103.541053 
C 228.668026 103.72858 228.56266 103.982957 228.56266 104.24816 
C 228.56266 104.513363 228.668026 104.76774 228.855553 104.955267 
C 229.04308 105.142794 229.297456 105.24816 229.56266 105.24816 
z
" clip-path="url(#p4d8349b8e7)" style="fill: #ffffff; stroke: #ffffff"/>
    <path d="M 217.099641 122.446186 
C 217.364844 122.446186 217.619221 122.34082 217.806748 122.153293 
C 217.994275 121.965766 218.099641 121.711389 218.099641 121.446186 
C 218.099641 121.180983 217.994275 120.926606 217.806748 120.739079 
C 217.619221 120.551553 217.364844 120.446186 217.099641 120.446186 
C 216.834438 120.446186 216.580061 120.551553 216.392534 120.739079 
C 216.205008 120.926606 216.099641 121.180983 216.099641 121.446186 
C 216.099641 121.711389 216.205008 121.965766 216.392534 122.153293 
C 216.580061 122.34082 216.834438 122.446186 217.099641 122.446186 
z
" clip-path="url(#p4d8349b8e7)" style="fill: #ffffff; stroke: #ffffff"/>
    <path d="M 208.387988 152.642578 
C 208.575515 152.642578 208.755387 152.568073 208.887988 152.435471 
C 209.02059 152.30287 209.095095 152.122998 209.095095 151.935471 
C 209.095095 151.747944 209.02059 151.568073 208.887988 151.435471 
C 208.755387 151.30287 208.575515 151.228364 208.387988 151.228364 
C 208.200462 151.228364 208.02059 151.30287 207.887988 151.435471 
C 207.755387 151.568073 207.680882 151.747944 207.680882 151.935471 
C 207.680882 152.122998 207.755387 152.30287 207.887988 152.435471 
C 208.02059 152.568073 208.200462 152.642578 208.387988 152.642578 
z
" clip-path="url(#p4d8349b8e7)" style="fill: #ffffff; stroke: #ffffff"/>
    <path d="M 203.950587 140.177116 
C 204.325641 140.177116 204.685384 140.028105 204.950587 139.762902 
C 205.21579 139.497699 205.364801 139.137956 205.364801 138.762902 
C 205.364801 138.387848 205.21579 138.028105 204.950587 137.762902 
C 204.685384 137.497699 204.325641 137.348689 203.950587 137.348689 
C 203.575533 137.348689 203.21579 137.497699 202.950587 137.762902 
C 202.685384 138.028105 202.536374 138.387848 202.536374 138.762902 
C 202.536374 139.137956 202.685384 139.497699 202.950587 139.762902 
C 203.21579 140.028105 203.575533 140.177116 203.950587 140.177116 
z
" clip-path="url(#p4d8349b8e7)" style="fill: #ffffff; stroke: #ffffff"/>
    <path d="M 98.878425 95.201703 
C 99.143628 95.201703 99.398005 95.096337 99.585532 94.90881 
C 99.773059 94.721283 99.878425 94.466906 99.878425 94.201703 
C 99.878425 93.9365 99.773059 93.682123 99.585532 93.494596 
C 99.398005 93.307069 99.143628 93.201703 98.878425 93.201703 
C 98.613222 93.201703 98.358845 93.307069 98.171318 93.494596 
C 97.983791 93.682123 97.878425 93.9365 97.878425 94.201703 
C 97.878425 94.466906 97.983791 94.721283 98.171318 94.90881 
C 98.358845 95.096337 98.613222 95.201703 98.878425 95.201703 
z
" clip-path="url(#p4d8349b8e7)" style="fill: #ffffff; stroke: #ffffff"/>
    <path d="M 279.4239 62.499686 
C 279.689103 62.499686 279.94348 62.39432 280.131007 62.206793 
C 280.318534 62.019266 280.4239 61.764889 280.4239 61.499686 
C 280.4239 61.234483 280.318534 60.980106 280.131007 60.792579 
C 279.94348 60.605053 279.689103 60.499686 279.4239 60.499686 
C 279.158697 60.499686 278.90432 60.605053 278.716793 60.792579 
C 278.529266 60.980106 278.4239 61.234483 278.4239 61.499686 
C 278.4239 61.764889 278.529266 62.019266 278.716793 62.206793 
C 278.90432 62.39432 279.158697 62.499686 279.4239 62.499686 
z
" clip-path="url(#p4d8349b8e7)" style="fill: #ffffff; stroke: #ffffff"/>
    <path d="M 352.206339 126.901345 
C 352.471542 126.901345 352.725919 126.795979 352.913446 126.608452 
C 353.100973 126.420925 353.206339 126.166548 353.206339 125.901345 
C 353.206339 125.636142 353.100973 125.381765 352.913446 125.194238 
C 352.725919 125.006711 352.471542 124.901345 352.206339 124.901345 
C 351.941136 124.901345 351.686759 125.006711 351.499233 125.194238 
C 351.311706 125.381765 351.206339 125.636142 351.206339 125.901345 
C 351.206339 126.166548 351.311706 126.420925 351.499233 126.608452 
C 351.686759 126.795979 351.941136 126.901345 352.206339 126.901345 
z
" clip-path="url(#p4d8349b8e7)" style="fill: #ffffff; stroke: #ffffff"/>
    <path d="M 308.955696 130.829117 
C 309.220899 130.829117 309.475276 130.723751 309.662803 130.536224 
C 309.85033 130.348697 309.955696 130.09432 309.955696 129.829117 
C 309.955696 129.563914 309.85033 129.309538 309.662803 129.122011 
C 309.475276 128.934484 309.220899 128.829117 308.955696 128.829117 
C 308.690493 128.829117 308.436116 128.934484 308.248589 129.122011 
C 308.061062 129.309538 307.955696 129.563914 307.955696 129.829117 
C 307.955696 130.09432 308.061062 130.348697 308.248589 130.536224 
C 308.436116 130.723751 308.690493 130.829117 308.955696 130.829117 
z
" clip-path="url(#p4d8349b8e7)" style="fill: #ffffff; stroke: #ffffff"/>
    <path d="M 257.214634 132.535532 
C 257.479838 132.535532 257.734214 132.430166 257.921741 132.242639 
C 258.109268 132.055112 258.214634 131.800735 258.214634 131.535532 
C 258.214634 131.270329 258.109268 131.015952 257.921741 130.828425 
C 257.734214 130.640898 257.479838 130.535532 257.214634 130.535532 
C 256.949431 130.535532 256.695055 130.640898 256.507528 130.828425 
C 256.320001 131.015952 256.214634 131.270329 256.214634 131.535532 
C 256.214634 131.800735 256.320001 132.055112 256.507528 132.242639 
C 256.695055 132.430166 256.949431 132.535532 257.214634 132.535532 
z
" clip-path="url(#p4d8349b8e7)" style="fill: #ffffff; stroke: #ffffff"/>
    <path d="M 292.57691 52.675636 
C 292.764437 52.675636 292.944308 52.60113 293.07691 52.468529 
C 293.209511 52.335927 293.284016 52.156056 293.284016 51.968529 
C 293.284016 51.781002 293.209511 51.60113 293.07691 51.468529 
C 292.944308 51.335927 292.764437 51.261422 292.57691 51.261422 
C 292.389383 51.261422 292.209511 51.335927 292.07691 51.468529 
C 291.944308 51.60113 291.869803 51.781002 291.869803 51.968529 
C 291.869803 52.156056 291.944308 52.335927 292.07691 52.468529 
C 292.209511 52.60113 292.389383 52.675636 292.57691 52.675636 
z
" clip-path="url(#p4d8349b8e7)" style="fill: #ffffff; stroke: #ffffff"/>
    <path d="M 383.730248 121.332004 
C 383.917775 121.332004 384.097646 121.257499 384.230248 121.124897 
C 384.362849 120.992295 384.437355 120.812424 384.437355 120.624897 
C 384.437355 120.43737 384.362849 120.257499 384.230248 120.124897 
C 384.097646 119.992295 383.917775 119.91779 383.730248 119.91779 
C 383.542721 119.91779 383.362849 119.992295 383.230248 120.124897 
C 383.097646 120.257499 383.023141 120.43737 383.023141 120.624897 
C 383.023141 120.812424 383.097646 120.992295 383.230248 121.124897 
C 383.362849 121.257499 383.542721 121.332004 383.730248 121.332004 
z
" clip-path="url(#p4d8349b8e7)" style="fill: #ffffff; stroke: #ffffff"/>
    <path d="M 263.02501 74.5321 
C 263.290213 74.5321 263.54459 74.426734 263.732117 74.239207 
C 263.919644 74.05168 264.02501 73.797303 264.02501 73.5321 
C 264.02501 73.266897 263.919644 73.01252 263.732117 72.824993 
C 263.54459 72.637466 263.290213 72.5321 263.02501 72.5321 
C 262.759807 72.5321 262.50543 72.637466 262.317903 72.824993 
C 262.130377 73.01252 262.02501 73.266897 262.02501 73.5321 
C 262.02501 73.797303 262.130377 74.05168 262.317903 74.239207 
C 262.50543 74.426734 262.759807 74.5321 263.02501 74.5321 
z
" clip-path="url(#p4d8349b8e7)" style="fill: #ffffff; stroke: #ffffff"/>
    <path d="M 178.034783 148.244349 
C 178.299986 148.244349 178.554362 148.138983 178.741889 147.951456 
C 178.929416 147.763929 179.034783 147.509552 179.034783 147.244349 
C 179.034783 146.979146 178.929416 146.72477 178.741889 146.537243 
C 178.554362 146.349716 178.299986 146.244349 178.034783 146.244349 
C 177.769579 146.244349 177.515203 146.349716 177.327676 146.537243 
C 177.140149 146.72477 177.034783 146.979146 177.034783 147.244349 
C 177.034783 147.509552 177.140149 147.763929 177.327676 147.951456 
C 177.515203 148.138983 177.769579 148.244349 178.034783 148.244349 
z
" clip-path="url(#p4d8349b8e7)" style="fill: #ffffff; stroke: #ffffff"/>
    <path d="M 226.444171 79.737859 
C 226.631698 79.737859 226.811569 79.663353 226.944171 79.530752 
C 227.076773 79.39815 227.151278 79.218279 227.151278 79.030752 
C 227.151278 78.843225 227.076773 78.663353 226.944171 78.530752 
C 226.811569 78.39815 226.631698 78.323645 226.444171 78.323645 
C 226.256644 78.323645 226.076773 78.39815 225.944171 78.530752 
C 225.811569 78.663353 225.737064 78.843225 225.737064 79.030752 
C 225.737064 79.218279 225.811569 79.39815 225.944171 79.530752 
C 226.076773 79.663353 226.256644 79.737859 226.444171 79.737859 
z
" clip-path="url(#p4d8349b8e7)" style="fill: #ffffff; stroke: #ffffff"/>
   </g>
   <g id="text_1">
    <!-- Degree centrality -->
    <g transform="translate(183.890625 35.472) scale(0.12 -0.12)">
     <defs>
      <path id="DejaVuSans-44" d="M 1259 4147 
L 1259 519 
L 2022 519 
Q 2988 519 3436 956 
Q 3884 1394 3884 2338 
Q 3884 3275 3436 3711 
Q 2988 4147 2022 4147 
L 1259 4147 
z
M 628 4666 
L 1925 4666 
Q 3281 4666 3915 4102 
Q 4550 3538 4550 2338 
Q 4550 1131 3912 565 
Q 3275 0 1925 0 
L 628 0 
L 628 4666 
z
" transform="scale(0.015625)"/>
      <path id="DejaVuSans-65" d="M 3597 1894 
L 3597 1613 
L 953 1613 
Q 991 1019 1311 708 
Q 1631 397 2203 397 
Q 2534 397 2845 478 
Q 3156 559 3463 722 
L 3463 178 
Q 3153 47 2828 -22 
Q 2503 -91 2169 -91 
Q 1331 -91 842 396 
Q 353 884 353 1716 
Q 353 2575 817 3079 
Q 1281 3584 2069 3584 
Q 2775 3584 3186 3129 
Q 3597 2675 3597 1894 
z
M 3022 2063 
Q 3016 2534 2758 2815 
Q 2500 3097 2075 3097 
Q 1594 3097 1305 2825 
Q 1016 2553 972 2059 
L 3022 2063 
z
" transform="scale(0.015625)"/>
      <path id="DejaVuSans-67" d="M 2906 1791 
Q 2906 2416 2648 2759 
Q 2391 3103 1925 3103 
Q 1463 3103 1205 2759 
Q 947 2416 947 1791 
Q 947 1169 1205 825 
Q 1463 481 1925 481 
Q 2391 481 2648 825 
Q 2906 1169 2906 1791 
z
M 3481 434 
Q 3481 -459 3084 -895 
Q 2688 -1331 1869 -1331 
Q 1566 -1331 1297 -1286 
Q 1028 -1241 775 -1147 
L 775 -588 
Q 1028 -725 1275 -790 
Q 1522 -856 1778 -856 
Q 2344 -856 2625 -561 
Q 2906 -266 2906 331 
L 2906 616 
Q 2728 306 2450 153 
Q 2172 0 1784 0 
Q 1141 0 747 490 
Q 353 981 353 1791 
Q 353 2603 747 3093 
Q 1141 3584 1784 3584 
Q 2172 3584 2450 3431 
Q 2728 3278 2906 2969 
L 2906 3500 
L 3481 3500 
L 3481 434 
z
" transform="scale(0.015625)"/>
      <path id="DejaVuSans-72" d="M 2631 2963 
Q 2534 3019 2420 3045 
Q 2306 3072 2169 3072 
Q 1681 3072 1420 2755 
Q 1159 2438 1159 1844 
L 1159 0 
L 581 0 
L 581 3500 
L 1159 3500 
L 1159 2956 
Q 1341 3275 1631 3429 
Q 1922 3584 2338 3584 
Q 2397 3584 2469 3576 
Q 2541 3569 2628 3553 
L 2631 2963 
z
" transform="scale(0.015625)"/>
      <path id="DejaVuSans-20" transform="scale(0.015625)"/>
      <path id="DejaVuSans-63" d="M 3122 3366 
L 3122 2828 
Q 2878 2963 2633 3030 
Q 2388 3097 2138 3097 
Q 1578 3097 1268 2742 
Q 959 2388 959 1747 
Q 959 1106 1268 751 
Q 1578 397 2138 397 
Q 2388 397 2633 464 
Q 2878 531 3122 666 
L 3122 134 
Q 2881 22 2623 -34 
Q 2366 -91 2075 -91 
Q 1284 -91 818 406 
Q 353 903 353 1747 
Q 353 2603 823 3093 
Q 1294 3584 2113 3584 
Q 2378 3584 2631 3529 
Q 2884 3475 3122 3366 
z
" transform="scale(0.015625)"/>
      <path id="DejaVuSans-6e" d="M 3513 2113 
L 3513 0 
L 2938 0 
L 2938 2094 
Q 2938 2591 2744 2837 
Q 2550 3084 2163 3084 
Q 1697 3084 1428 2787 
Q 1159 2491 1159 1978 
L 1159 0 
L 581 0 
L 581 3500 
L 1159 3500 
L 1159 2956 
Q 1366 3272 1645 3428 
Q 1925 3584 2291 3584 
Q 2894 3584 3203 3211 
Q 3513 2838 3513 2113 
z
" transform="scale(0.015625)"/>
      <path id="DejaVuSans-74" d="M 1172 4494 
L 1172 3500 
L 2356 3500 
L 2356 3053 
L 1172 3053 
L 1172 1153 
Q 1172 725 1289 603 
Q 1406 481 1766 481 
L 2356 481 
L 2356 0 
L 1766 0 
Q 1100 0 847 248 
Q 594 497 594 1153 
L 594 3053 
L 172 3053 
L 172 3500 
L 594 3500 
L 594 4494 
L 1172 4494 
z
" transform="scale(0.015625)"/>
      <path id="DejaVuSans-61" d="M 2194 1759 
Q 1497 1759 1228 1600 
Q 959 1441 959 1056 
Q 959 750 1161 570 
Q 1363 391 1709 391 
Q 2188 391 2477 730 
Q 2766 1069 2766 1631 
L 2766 1759 
L 2194 1759 
z
M 3341 1997 
L 3341 0 
L 2766 0 
L 2766 531 
Q 2569 213 2275 61 
Q 1981 -91 1556 -91 
Q 1019 -91 701 211 
Q 384 513 384 1019 
Q 384 1609 779 1909 
Q 1175 2209 1959 2209 
L 2766 2209 
L 2766 2266 
Q 2766 2663 2505 2880 
Q 2244 3097 1772 3097 
Q 1472 3097 1187 3025 
Q 903 2953 641 2809 
L 641 3341 
Q 956 3463 1253 3523 
Q 1550 3584 1831 3584 
Q 2591 3584 2966 3190 
Q 3341 2797 3341 1997 
z
" transform="scale(0.015625)"/>
      <path id="DejaVuSans-6c" d="M 603 4863 
L 1178 4863 
L 1178 0 
L 603 0 
L 603 4863 
z
" transform="scale(0.015625)"/>
      <path id="DejaVuSans-69" d="M 603 3500 
L 1178 3500 
L 1178 0 
L 603 0 
L 603 3500 
z
M 603 4863 
L 1178 4863 
L 1178 4134 
L 603 4134 
L 603 4863 
z
" transform="scale(0.015625)"/>
      <path id="DejaVuSans-79" d="M 2059 -325 
Q 1816 -950 1584 -1140 
Q 1353 -1331 966 -1331 
L 506 -1331 
L 506 -850 
L 844 -850 
Q 1081 -850 1212 -737 
Q 1344 -625 1503 -206 
L 1606 56 
L 191 3500 
L 800 3500 
L 1894 763 
L 2988 3500 
L 3597 3500 
L 2059 -325 
z
" transform="scale(0.015625)"/>
     </defs>
     <use xlink:href="#DejaVuSans-44"/>
     <use xlink:href="#DejaVuSans-65" x="77.001953"/>
     <use xlink:href="#DejaVuSans-67" x="138.525391"/>
     <use xlink:href="#DejaVuSans-72" x="202.001953"/>
     <use xlink:href="#DejaVuSans-65" x="240.865234"/>
     <use xlink:href="#DejaVuSans-65" x="302.388672"/>
     <use xlink:href="#DejaVuSans-20" x="363.912109"/>
     <use xlink:href="#DejaVuSans-63" x="395.699219"/>
     <use xlink:href="#DejaVuSans-65" x="450.679688"/>
     <use xlink:href="#DejaVuSans-6e" x="512.203125"/>
     <use xlink:href="#DejaVuSans-74" x="575.582031"/>
     <use xlink:href="#DejaVuSans-72" x="614.791016"/>
     <use xlink:href="#DejaVuSans-61" x="655.904297"/>
     <use xlink:href="#DejaVuSans-6c" x="717.183594"/>
     <use xlink:href="#DejaVuSans-69" x="744.966797"/>
     <use xlink:href="#DejaVuSans-74" x="772.75"/>
     <use xlink:href="#DejaVuSans-79" x="811.958984"/>
    </g>
   </g>
  </g>
  <g id="axes_2">
   <g id="LineCollection_3">
    <path d="M 121.791971 251.902543 
L 155.349507 264.246098 
" clip-path="url(#pede8f66c4d)" style="fill: none; stroke: #000000"/>
    <path d="M 121.791971 251.902543 
L 98.878425 239.353703 
" clip-path="url(#pede8f66c4d)" style="fill: none; stroke: #000000"/>
    <path d="M 155.349507 264.246098 
L 198.832387 275.636858 
" clip-path="url(#pede8f66c4d)" style="fill: none; stroke: #000000"/>
    <path d="M 198.832387 275.636858 
L 173.020491 284.762196 
" clip-path="url(#pede8f66c4d)" style="fill: none; stroke: #000000"/>
    <path d="M 198.832387 275.636858 
L 203.950587 283.914902 
" clip-path="url(#pede8f66c4d)" style="fill: none; stroke: #000000"/>
    <path d="M 198.832387 275.636858 
L 257.214634 276.687532 
" clip-path="url(#pede8f66c4d)" style="fill: none; stroke: #000000"/>
    <path d="M 173.020491 284.762196 
L 178.034783 292.396349 
" clip-path="url(#pede8f66c4d)" style="fill: none; stroke: #000000"/>
    <path d="M 88.589752 228.07581 
L 98.878425 239.353703 
" clip-path="url(#pede8f66c4d)" style="fill: none; stroke: #000000"/>
    <path d="M 241.742056 232.548159 
L 229.56266 249.40016 
" clip-path="url(#pede8f66c4d)" style="fill: none; stroke: #000000"/>
    <path d="M 241.742056 232.548159 
L 263.02501 218.6841 
" clip-path="url(#pede8f66c4d)" style="fill: none; stroke: #000000"/>
    <path d="M 241.742056 232.548159 
L 226.444171 224.182752 
" clip-path="url(#pede8f66c4d)" style="fill: none; stroke: #000000"/>
    <path d="M 229.56266 249.40016 
L 217.099641 266.598186 
" clip-path="url(#pede8f66c4d)" style="fill: none; stroke: #000000"/>
    <path d="M 217.099641 266.598186 
L 203.950587 283.914902 
" clip-path="url(#pede8f66c4d)" style="fill: none; stroke: #000000"/>
    <path d="M 208.387988 297.087471 
L 203.950587 283.914902 
" clip-path="url(#pede8f66c4d)" style="fill: none; stroke: #000000"/>
    <path d="M 203.950587 283.914902 
L 178.034783 292.396349 
" clip-path="url(#pede8f66c4d)" style="fill: none; stroke: #000000"/>
    <path d="M 279.4239 206.651686 
L 263.02501 218.6841 
" clip-path="url(#pede8f66c4d)" style="fill: none; stroke: #000000"/>
    <path d="M 279.4239 206.651686 
L 292.57691 197.120529 
" clip-path="url(#pede8f66c4d)" style="fill: none; stroke: #000000"/>
    <path d="M 352.206339 271.053345 
L 308.955696 274.981117 
" clip-path="url(#pede8f66c4d)" style="fill: none; stroke: #000000"/>
    <path d="M 352.206339 271.053345 
L 383.730248 265.776897 
" clip-path="url(#pede8f66c4d)" style="fill: none; stroke: #000000"/>
    <path d="M 308.955696 274.981117 
L 257.214634 276.687532 
" clip-path="url(#pede8f66c4d)" style="fill: none; stroke: #000000"/>
   </g>
   <g id="LineCollection_4">
    <path d="M 121.791971 251.902543 
L 155.349507 264.246098 
" clip-path="url(#pede8f66c4d)" style="fill: none; stroke: #000000"/>
    <path d="M 121.791971 251.902543 
L 98.878425 239.353703 
" clip-path="url(#pede8f66c4d)" style="fill: none; stroke: #000000"/>
    <path d="M 155.349507 264.246098 
L 198.832387 275.636858 
" clip-path="url(#pede8f66c4d)" style="fill: none; stroke: #000000"/>
    <path d="M 198.832387 275.636858 
L 173.020491 284.762196 
" clip-path="url(#pede8f66c4d)" style="fill: none; stroke: #000000"/>
    <path d="M 198.832387 275.636858 
L 203.950587 283.914902 
" clip-path="url(#pede8f66c4d)" style="fill: none; stroke: #000000"/>
    <path d="M 198.832387 275.636858 
L 257.214634 276.687532 
" clip-path="url(#pede8f66c4d)" style="fill: none; stroke: #000000"/>
    <path d="M 173.020491 284.762196 
L 178.034783 292.396349 
" clip-path="url(#pede8f66c4d)" style="fill: none; stroke: #000000"/>
    <path d="M 88.589752 228.07581 
L 98.878425 239.353703 
" clip-path="url(#pede8f66c4d)" style="fill: none; stroke: #000000"/>
    <path d="M 241.742056 232.548159 
L 229.56266 249.40016 
" clip-path="url(#pede8f66c4d)" style="fill: none; stroke: #000000"/>
    <path d="M 241.742056 232.548159 
L 263.02501 218.6841 
" clip-path="url(#pede8f66c4d)" style="fill: none; stroke: #000000"/>
    <path d="M 241.742056 232.548159 
L 226.444171 224.182752 
" clip-path="url(#pede8f66c4d)" style="fill: none; stroke: #000000"/>
    <path d="M 229.56266 249.40016 
L 217.099641 266.598186 
" clip-path="url(#pede8f66c4d)" style="fill: none; stroke: #000000"/>
    <path d="M 217.099641 266.598186 
L 203.950587 283.914902 
" clip-path="url(#pede8f66c4d)" style="fill: none; stroke: #000000"/>
    <path d="M 208.387988 297.087471 
L 203.950587 283.914902 
" clip-path="url(#pede8f66c4d)" style="fill: none; stroke: #000000"/>
    <path d="M 203.950587 283.914902 
L 178.034783 292.396349 
" clip-path="url(#pede8f66c4d)" style="fill: none; stroke: #000000"/>
    <path d="M 279.4239 206.651686 
L 263.02501 218.6841 
" clip-path="url(#pede8f66c4d)" style="fill: none; stroke: #000000"/>
    <path d="M 279.4239 206.651686 
L 292.57691 197.120529 
" clip-path="url(#pede8f66c4d)" style="fill: none; stroke: #000000"/>
    <path d="M 352.206339 271.053345 
L 308.955696 274.981117 
" clip-path="url(#pede8f66c4d)" style="fill: none; stroke: #000000"/>
    <path d="M 352.206339 271.053345 
L 383.730248 265.776897 
" clip-path="url(#pede8f66c4d)" style="fill: none; stroke: #000000"/>
    <path d="M 308.955696 274.981117 
L 257.214634 276.687532 
" clip-path="url(#pede8f66c4d)" style="fill: none; stroke: #000000"/>
   </g>
   <g id="PathCollection_3">
    <path d="M 121.791971 255.055561 
C 122.628161 255.055561 123.430216 254.723339 124.021491 254.132064 
C 124.612767 253.540788 124.944989 252.738734 124.944989 251.902543 
C 124.944989 251.066353 124.612767 250.264299 124.021491 249.673023 
C 123.430216 249.081748 122.628161 248.749526 121.791971 248.749526 
C 120.955781 248.749526 120.153727 249.081748 119.562451 249.673023 
C 118.971175 250.264299 118.638953 251.066353 118.638953 251.902543 
C 118.638953 252.738734 118.971175 253.540788 119.562451 254.132064 
C 120.153727 254.723339 120.955781 255.055561 121.791971 255.055561 
z
" clip-path="url(#pede8f66c4d)" style="fill: #33638d; stroke: #33638d"/>
    <path d="M 155.349507 267.992441 
C 156.343049 267.992441 157.296031 267.597702 157.998572 266.895162 
C 158.701112 266.192622 159.09585 265.239639 159.09585 264.246098 
C 159.09585 263.252556 158.701112 262.299573 157.998572 261.597033 
C 157.296031 260.894493 156.343049 260.499754 155.349507 260.499754 
C 154.355965 260.499754 153.402982 260.894493 152.700442 261.597033 
C 151.997902 262.299573 151.603164 263.252556 151.603164 264.246098 
C 151.603164 265.239639 151.997902 266.192622 152.700442 266.895162 
C 153.402982 267.597702 154.355965 267.992441 155.349507 267.992441 
z
" clip-path="url(#pede8f66c4d)" style="fill: #26828e; stroke: #26828e"/>
    <path d="M 198.832387 281.269366 
C 200.326146 281.269366 201.758925 280.675889 202.815172 279.619642 
C 203.871418 278.563395 204.464895 277.130616 204.464895 275.636858 
C 204.464895 274.143099 203.871418 272.71032 202.815172 271.654073 
C 201.758925 270.597826 200.326146 270.00435 198.832387 270.00435 
C 197.338628 270.00435 195.905849 270.597826 194.849602 271.654073 
C 193.793356 272.71032 193.199879 274.143099 193.199879 275.636858 
C 193.199879 277.130616 193.793356 278.563395 194.849602 279.619642 
C 195.905849 280.675889 197.338628 281.269366 198.832387 281.269366 
z
" clip-path="url(#pede8f66c4d)" style="fill: #fde725; stroke: #fde725"/>
    <path d="M 173.020491 285.909274 
C 173.3247 285.909274 173.61649 285.788411 173.831598 285.573303 
C 174.046706 285.358194 174.16757 285.066404 174.16757 284.762196 
C 174.16757 284.457987 174.046706 284.166197 173.831598 283.951088 
C 173.61649 283.73598 173.3247 283.615117 173.020491 283.615117 
C 172.716282 283.615117 172.424492 283.73598 172.209384 283.951088 
C 171.994276 284.166197 171.873412 284.457987 171.873412 284.762196 
C 171.873412 285.066404 171.994276 285.358194 172.209384 285.573303 
C 172.424492 285.788411 172.716282 285.909274 173.020491 285.909274 
z
" clip-path="url(#pede8f66c4d)" style="fill: #471063; stroke: #471063"/>
    <path d="M 88.589752 228.07581 
C 88.589752 228.07581 88.589752 228.07581 88.589752 228.07581 
C 88.589752 228.07581 88.589752 228.07581 88.589752 228.07581 
C 88.589752 228.07581 88.589752 228.07581 88.589752 228.07581 
C 88.589752 228.07581 88.589752 228.07581 88.589752 228.07581 
C 88.589752 228.07581 88.589752 228.07581 88.589752 228.07581 
C 88.589752 228.07581 88.589752 228.07581 88.589752 228.07581 
C 88.589752 228.07581 88.589752 228.07581 88.589752 228.07581 
C 88.589752 228.07581 88.589752 228.07581 88.589752 228.07581 
z
" clip-path="url(#pede8f66c4d)" style="fill: #440154; stroke: #440154"/>
    <path d="M 241.742056 236.840134 
C 242.880301 236.840134 243.97208 236.387904 244.776941 235.583044 
C 245.581802 234.778183 246.034031 233.686404 246.034031 232.548159 
C 246.034031 231.409913 245.581802 230.318135 244.776941 229.513274 
C 243.97208 228.708413 242.880301 228.256183 241.742056 228.256183 
C 240.603811 228.256183 239.512032 228.708413 238.707171 229.513274 
C 237.90231 230.318135 237.450081 231.409913 237.450081 232.548159 
C 237.450081 233.686404 237.90231 234.778183 238.707171 235.583044 
C 239.512032 236.387904 240.603811 236.840134 241.742056 236.840134 
z
" clip-path="url(#pede8f66c4d)" style="fill: #20a386; stroke: #20a386"/>
    <path d="M 229.56266 253.924299 
C 230.762475 253.924299 231.913311 253.447608 232.761709 252.59921 
C 233.610107 251.750812 234.086799 250.599976 234.086799 249.40016 
C 234.086799 248.200344 233.610107 247.049508 232.761709 246.201111 
C 231.913311 245.352713 230.762475 244.876021 229.56266 244.876021 
C 228.362844 244.876021 227.212008 245.352713 226.36361 246.201111 
C 225.515212 247.049508 225.03852 248.200344 225.03852 249.40016 
C 225.03852 250.599976 225.515212 251.750812 226.36361 252.59921 
C 227.212008 253.447608 228.362844 253.924299 229.56266 253.924299 
z
" clip-path="url(#pede8f66c4d)" style="fill: #2eb37c; stroke: #2eb37c"/>
    <path d="M 217.099641 271.373856 
C 218.366164 271.373856 219.580983 270.870661 220.476549 269.975094 
C 221.372116 269.079528 221.875311 267.864709 221.875311 266.598186 
C 221.875311 265.331664 221.372116 264.116845 220.476549 263.221278 
C 219.580983 262.325712 218.366164 261.822517 217.099641 261.822517 
C 215.833119 261.822517 214.6183 262.325712 213.722733 263.221278 
C 212.827167 264.116845 212.323972 265.331664 212.323972 266.598186 
C 212.323972 267.864709 212.827167 269.079528 213.722733 269.975094 
C 214.6183 270.870661 215.833119 271.373856 217.099641 271.373856 
z
" clip-path="url(#pede8f66c4d)" style="fill: #4ec36b; stroke: #4ec36b"/>
    <path d="M 208.387988 297.087471 
C 208.387988 297.087471 208.387988 297.087471 208.387988 297.087471 
C 208.387988 297.087471 208.387988 297.087471 208.387988 297.087471 
C 208.387988 297.087471 208.387988 297.087471 208.387988 297.087471 
C 208.387988 297.087471 208.387988 297.087471 208.387988 297.087471 
C 208.387988 297.087471 208.387988 297.087471 208.387988 297.087471 
C 208.387988 297.087471 208.387988 297.087471 208.387988 297.087471 
C 208.387988 297.087471 208.387988 297.087471 208.387988 297.087471 
C 208.387988 297.087471 208.387988 297.087471 208.387988 297.087471 
z
" clip-path="url(#pede8f66c4d)" style="fill: #440154; stroke: #440154"/>
    <path d="M 203.950587 289.308747 
C 205.381052 289.308747 206.753121 288.740418 207.764612 287.728927 
C 208.776103 286.717436 209.344432 285.345367 209.344432 283.914902 
C 209.344432 282.484438 208.776103 281.112369 207.764612 280.100878 
C 206.753121 279.089386 205.381052 278.521057 203.950587 278.521057 
C 202.520123 278.521057 201.148054 279.089386 200.136563 280.100878 
C 199.125071 281.112369 198.556742 282.484438 198.556742 283.914902 
C 198.556742 285.345367 199.125071 286.717436 200.136563 287.728927 
C 201.148054 288.740418 202.520123 289.308747 203.950587 289.308747 
z
" clip-path="url(#pede8f66c4d)" style="fill: #c8e020; stroke: #c8e020"/>
    <path d="M 98.878425 241.64786 
C 99.486843 241.64786 100.070423 241.406133 100.500639 240.975917 
C 100.930856 240.545701 101.172582 239.962121 101.172582 239.353703 
C 101.172582 238.745285 100.930856 238.161705 100.500639 237.731489 
C 100.070423 237.301272 99.486843 237.059546 98.878425 237.059546 
C 98.270007 237.059546 97.686427 237.301272 97.256211 237.731489 
C 96.825995 238.161705 96.584268 238.745285 96.584268 239.353703 
C 96.584268 239.962121 96.825995 240.545701 97.256211 240.975917 
C 97.686427 241.406133 98.270007 241.64786 98.878425 241.64786 
z
" clip-path="url(#pede8f66c4d)" style="fill: #443983; stroke: #443983"/>
    <path d="M 279.4239 208.945844 
C 280.032318 208.945844 280.615898 208.704117 281.046114 208.2739 
C 281.47633 207.843684 281.718057 207.260104 281.718057 206.651686 
C 281.718057 206.043269 281.47633 205.459688 281.046114 205.029472 
C 280.615898 204.599256 280.032318 204.357529 279.4239 204.357529 
C 278.815482 204.357529 278.231902 204.599256 277.801686 205.029472 
C 277.37147 205.459688 277.129743 206.043269 277.129743 206.651686 
C 277.129743 207.260104 277.37147 207.843684 277.801686 208.2739 
C 278.231902 208.704117 278.815482 208.945844 279.4239 208.945844 
z
" clip-path="url(#pede8f66c4d)" style="fill: #443983; stroke: #443983"/>
    <path d="M 352.206339 273.347502 
C 352.814757 273.347502 353.398337 273.105776 353.828554 272.675559 
C 354.25877 272.245343 354.500497 271.661763 354.500497 271.053345 
C 354.500497 270.444927 354.25877 269.861347 353.828554 269.431131 
C 353.398337 269.000915 352.814757 268.759188 352.206339 268.759188 
C 351.597922 268.759188 351.014341 269.000915 350.584125 269.431131 
C 350.153909 269.861347 349.912182 270.444927 349.912182 271.053345 
C 349.912182 271.661763 350.153909 272.245343 350.584125 272.675559 
C 351.014341 273.105776 351.597922 273.347502 352.206339 273.347502 
z
" clip-path="url(#pede8f66c4d)" style="fill: #443983; stroke: #443983"/>
    <path d="M 308.955696 278.134135 
C 309.791886 278.134135 310.59394 277.801913 311.185216 277.210638 
C 311.776492 276.619362 312.108714 275.817307 312.108714 274.981117 
C 312.108714 274.144927 311.776492 273.342873 311.185216 272.751597 
C 310.59394 272.160322 309.791886 271.8281 308.955696 271.8281 
C 308.119506 271.8281 307.317451 272.160322 306.726176 272.751597 
C 306.1349 273.342873 305.802678 274.144927 305.802678 274.981117 
C 305.802678 275.817307 306.1349 276.619362 306.726176 277.210638 
C 307.317451 277.801913 308.119506 278.134135 308.955696 278.134135 
z
" clip-path="url(#pede8f66c4d)" style="fill: #33638d; stroke: #33638d"/>
    <path d="M 257.214634 280.433875 
C 258.208176 280.433875 259.161159 280.039137 259.863699 279.336597 
C 260.566239 278.634057 260.960978 277.681074 260.960978 276.687532 
C 260.960978 275.69399 260.566239 274.741008 259.863699 274.038467 
C 259.161159 273.335927 258.208176 272.941189 257.214634 272.941189 
C 256.221093 272.941189 255.26811 273.335927 254.56557 274.038467 
C 253.86303 274.741008 253.468291 275.69399 253.468291 276.687532 
C 253.468291 277.681074 253.86303 278.634057 254.56557 279.336597 
C 255.26811 280.039137 256.221093 280.433875 257.214634 280.433875 
z
" clip-path="url(#pede8f66c4d)" style="fill: #26828e; stroke: #26828e"/>
    <path d="M 292.57691 197.120529 
C 292.57691 197.120529 292.57691 197.120529 292.57691 197.120529 
C 292.57691 197.120529 292.57691 197.120529 292.57691 197.120529 
C 292.57691 197.120529 292.57691 197.120529 292.57691 197.120529 
C 292.57691 197.120529 292.57691 197.120529 292.57691 197.120529 
C 292.57691 197.120529 292.57691 197.120529 292.57691 197.120529 
C 292.57691 197.120529 292.57691 197.120529 292.57691 197.120529 
C 292.57691 197.120529 292.57691 197.120529 292.57691 197.120529 
C 292.57691 197.120529 292.57691 197.120529 292.57691 197.120529 
z
" clip-path="url(#pede8f66c4d)" style="fill: #440154; stroke: #440154"/>
    <path d="M 383.730248 265.776897 
C 383.730248 265.776897 383.730248 265.776897 383.730248 265.776897 
C 383.730248 265.776897 383.730248 265.776897 383.730248 265.776897 
C 383.730248 265.776897 383.730248 265.776897 383.730248 265.776897 
C 383.730248 265.776897 383.730248 265.776897 383.730248 265.776897 
C 383.730248 265.776897 383.730248 265.776897 383.730248 265.776897 
C 383.730248 265.776897 383.730248 265.776897 383.730248 265.776897 
C 383.730248 265.776897 383.730248 265.776897 383.730248 265.776897 
C 383.730248 265.776897 383.730248 265.776897 383.730248 265.776897 
z
" clip-path="url(#pede8f66c4d)" style="fill: #440154; stroke: #440154"/>
    <path d="M 263.02501 221.837118 
C 263.8612 221.837118 264.663255 221.504896 265.25453 220.91362 
C 265.845806 220.322344 266.178028 219.52029 266.178028 218.6841 
C 266.178028 217.84791 265.845806 217.045855 265.25453 216.45458 
C 264.663255 215.863304 263.8612 215.531082 263.02501 215.531082 
C 262.18882 215.531082 261.386766 215.863304 260.79549 216.45458 
C 260.204214 217.045855 259.871993 217.84791 259.871993 218.6841 
C 259.871993 219.52029 260.204214 220.322344 260.79549 220.91362 
C 261.386766 221.504896 262.18882 221.837118 263.02501 221.837118 
z
" clip-path="url(#pede8f66c4d)" style="fill: #33638d; stroke: #33638d"/>
    <path d="M 178.034783 293.543428 
C 178.338991 293.543428 178.630782 293.422565 178.84589 293.207456 
C 179.060998 292.992348 179.181861 292.700558 179.181861 292.396349 
C 179.181861 292.092141 179.060998 291.80035 178.84589 291.585242 
C 178.630782 291.370134 178.338991 291.249271 178.034783 291.249271 
C 177.730574 291.249271 177.438784 291.370134 177.223675 291.585242 
C 177.008567 291.80035 176.887704 292.092141 176.887704 292.396349 
C 176.887704 292.700558 177.008567 292.992348 177.223675 293.207456 
C 177.438784 293.422565 177.730574 293.543428 178.034783 293.543428 
z
" clip-path="url(#pede8f66c4d)" style="fill: #471063; stroke: #471063"/>
    <path d="M 226.444171 224.182752 
C 226.444171 224.182752 226.444171 224.182752 226.444171 224.182752 
C 226.444171 224.182752 226.444171 224.182752 226.444171 224.182752 
C 226.444171 224.182752 226.444171 224.182752 226.444171 224.182752 
C 226.444171 224.182752 226.444171 224.182752 226.444171 224.182752 
C 226.444171 224.182752 226.444171 224.182752 226.444171 224.182752 
C 226.444171 224.182752 226.444171 224.182752 226.444171 224.182752 
C 226.444171 224.182752 226.444171 224.182752 226.444171 224.182752 
C 226.444171 224.182752 226.444171 224.182752 226.444171 224.182752 
z
" clip-path="url(#pede8f66c4d)" style="fill: #440154; stroke: #440154"/>
   </g>
   <g id="PathCollection_4">
    <path d="M 121.791971 252.60758 
C 121.978949 252.60758 122.158294 252.533293 122.290507 252.401079 
C 122.42272 252.268866 122.497007 252.089521 122.497007 251.902543 
C 122.497007 251.715566 122.42272 251.536221 122.290507 251.404008 
C 122.158294 251.271794 121.978949 251.197507 121.791971 251.197507 
C 121.604993 251.197507 121.425648 251.271794 121.293435 251.404008 
C 121.161222 251.536221 121.086935 251.715566 121.086935 251.902543 
C 121.086935 252.089521 121.161222 252.268866 121.293435 252.401079 
C 121.425648 252.533293 121.604993 252.60758 121.791971 252.60758 
z
" clip-path="url(#pede8f66c4d)" style="fill: #ffffff; stroke: #ffffff"/>
    <path d="M 155.349507 265.083805 
C 155.57167 265.083805 155.784763 264.995539 155.941856 264.838446 
C 156.098949 264.681354 156.187215 264.46826 156.187215 264.246098 
C 156.187215 264.023935 156.098949 263.810841 155.941856 263.653749 
C 155.784763 263.496656 155.57167 263.40839 155.349507 263.40839 
C 155.127344 263.40839 154.914251 263.496656 154.757158 263.653749 
C 154.600065 263.810841 154.511799 264.023935 154.511799 264.246098 
C 154.511799 264.46826 154.600065 264.681354 154.757158 264.838446 
C 154.914251 264.995539 155.127344 265.083805 155.349507 265.083805 
z
" clip-path="url(#pede8f66c4d)" style="fill: #ffffff; stroke: #ffffff"/>
    <path d="M 198.832387 276.896325 
C 199.166402 276.896325 199.486781 276.763619 199.722965 276.527435 
C 199.959149 276.291251 200.091854 275.970872 200.091854 275.636858 
C 200.091854 275.302843 199.959149 274.982464 199.722965 274.74628 
C 199.486781 274.510096 199.166402 274.37739 198.832387 274.37739 
C 198.498372 274.37739 198.177993 274.510096 197.941809 274.74628 
C 197.705625 274.982464 197.57292 275.302843 197.57292 275.636858 
C 197.57292 275.970872 197.705625 276.291251 197.941809 276.527435 
C 198.177993 276.763619 198.498372 276.896325 198.832387 276.896325 
z
" clip-path="url(#pede8f66c4d)" style="fill: #ffffff; stroke: #ffffff"/>
    <path d="M 173.020491 285.01869 
C 173.088514 285.01869 173.15376 284.991664 173.20186 284.943565 
C 173.24996 284.895465 173.276986 284.830219 173.276986 284.762196 
C 173.276986 284.694172 173.24996 284.628926 173.20186 284.580826 
C 173.15376 284.532727 173.088514 284.505701 173.020491 284.505701 
C 172.952468 284.505701 172.887221 284.532727 172.839122 284.580826 
C 172.791022 284.628926 172.763996 284.694172 172.763996 284.762196 
C 172.763996 284.830219 172.791022 284.895465 172.839122 284.943565 
C 172.887221 284.991664 172.952468 285.01869 173.020491 285.01869 
z
" clip-path="url(#pede8f66c4d)" style="fill: #ffffff; stroke: #ffffff"/>
    <path d="M 88.589752 228.07581 
C 88.589752 228.07581 88.589752 228.07581 88.589752 228.07581 
C 88.589752 228.07581 88.589752 228.07581 88.589752 228.07581 
C 88.589752 228.07581 88.589752 228.07581 88.589752 228.07581 
C 88.589752 228.07581 88.589752 228.07581 88.589752 228.07581 
C 88.589752 228.07581 88.589752 228.07581 88.589752 228.07581 
C 88.589752 228.07581 88.589752 228.07581 88.589752 228.07581 
C 88.589752 228.07581 88.589752 228.07581 88.589752 228.07581 
C 88.589752 228.07581 88.589752 228.07581 88.589752 228.07581 
z
" clip-path="url(#pede8f66c4d)" style="fill: #ffffff; stroke: #ffffff"/>
    <path d="M 241.742056 233.507873 
C 241.996575 233.507873 242.240705 233.406752 242.420677 233.22678 
C 242.600649 233.046807 242.701771 232.802678 242.701771 232.548159 
C 242.701771 232.293639 242.600649 232.04951 242.420677 231.869538 
C 242.240705 231.689565 241.996575 231.588444 241.742056 231.588444 
C 241.487537 231.588444 241.243408 231.689565 241.063435 231.869538 
C 240.883463 232.04951 240.782341 232.293639 240.782341 232.548159 
C 240.782341 232.802678 240.883463 233.046807 241.063435 233.22678 
C 241.243408 233.406752 241.487537 233.507873 241.742056 233.507873 
z
" clip-path="url(#pede8f66c4d)" style="fill: #ffffff; stroke: #ffffff"/>
    <path d="M 229.56266 250.411788 
C 229.830947 250.411788 230.088281 250.305197 230.277989 250.115489 
C 230.467696 249.925782 230.574288 249.668447 230.574288 249.40016 
C 230.574288 249.131873 230.467696 248.874538 230.277989 248.684831 
C 230.088281 248.495123 229.830947 248.388532 229.56266 248.388532 
C 229.294373 248.388532 229.037038 248.495123 228.84733 248.684831 
C 228.657623 248.874538 228.551031 249.131873 228.551031 249.40016 
C 228.551031 249.668447 228.657623 249.925782 228.84733 250.115489 
C 229.037038 250.305197 229.294373 250.411788 229.56266 250.411788 
z
" clip-path="url(#pede8f66c4d)" style="fill: #ffffff; stroke: #ffffff"/>
    <path d="M 217.099641 267.666058 
C 217.382844 267.666058 217.654486 267.553541 217.854741 267.353286 
C 218.054996 267.153031 218.167513 266.881389 218.167513 266.598186 
C 218.167513 266.314983 218.054996 266.043341 217.854741 265.843087 
C 217.654486 265.642832 217.382844 265.530314 217.099641 265.530314 
C 216.816438 265.530314 216.544796 265.642832 216.344542 265.843087 
C 216.144287 266.043341 216.031769 266.314983 216.031769 266.598186 
C 216.031769 266.881389 216.144287 267.153031 216.344542 267.353286 
C 216.544796 267.553541 216.816438 267.666058 217.099641 267.666058 
z
" clip-path="url(#pede8f66c4d)" style="fill: #ffffff; stroke: #ffffff"/>
    <path d="M 208.387988 297.087471 
C 208.387988 297.087471 208.387988 297.087471 208.387988 297.087471 
C 208.387988 297.087471 208.387988 297.087471 208.387988 297.087471 
C 208.387988 297.087471 208.387988 297.087471 208.387988 297.087471 
C 208.387988 297.087471 208.387988 297.087471 208.387988 297.087471 
C 208.387988 297.087471 208.387988 297.087471 208.387988 297.087471 
C 208.387988 297.087471 208.387988 297.087471 208.387988 297.087471 
C 208.387988 297.087471 208.387988 297.087471 208.387988 297.087471 
C 208.387988 297.087471 208.387988 297.087471 208.387988 297.087471 
z
" clip-path="url(#pede8f66c4d)" style="fill: #ffffff; stroke: #ffffff"/>
    <path d="M 203.950587 285.121003 
C 204.270449 285.121003 204.577253 284.99392 204.803429 284.767744 
C 205.029605 284.541568 205.156688 284.234764 205.156688 283.914902 
C 205.156688 283.595041 205.029605 283.288237 204.803429 283.06206 
C 204.577253 282.835884 204.270449 282.708802 203.950587 282.708802 
C 203.630726 282.708802 203.323922 282.835884 203.097745 283.06206 
C 202.871569 283.288237 202.744487 283.595041 202.744487 283.914902 
C 202.744487 284.234764 202.871569 284.541568 203.097745 284.767744 
C 203.323922 284.99392 203.630726 285.121003 203.950587 285.121003 
z
" clip-path="url(#pede8f66c4d)" style="fill: #ffffff; stroke: #ffffff"/>
    <path d="M 98.878425 239.866692 
C 99.014471 239.866692 99.144964 239.81264 99.241163 239.716441 
C 99.337362 239.620242 99.391414 239.489749 99.391414 239.353703 
C 99.391414 239.217657 99.337362 239.087164 99.241163 238.990965 
C 99.144964 238.894765 99.014471 238.840714 98.878425 238.840714 
C 98.742379 238.840714 98.611886 238.894765 98.515687 238.990965 
C 98.419488 239.087164 98.365436 239.217657 98.365436 239.353703 
C 98.365436 239.489749 98.419488 239.620242 98.515687 239.716441 
C 98.611886 239.81264 98.742379 239.866692 98.878425 239.866692 
z
" clip-path="url(#pede8f66c4d)" style="fill: #ffffff; stroke: #ffffff"/>
    <path d="M 279.4239 207.164675 
C 279.559946 207.164675 279.690439 207.110624 279.786638 207.014424 
C 279.882837 206.918225 279.936889 206.787733 279.936889 206.651686 
C 279.936889 206.51564 279.882837 206.385147 279.786638 206.288948 
C 279.690439 206.192749 279.559946 206.138697 279.4239 206.138697 
C 279.287854 206.138697 279.157361 206.192749 279.061162 206.288948 
C 278.964963 206.385147 278.910911 206.51564 278.910911 206.651686 
C 278.910911 206.787733 278.964963 206.918225 279.061162 207.014424 
C 279.157361 207.110624 279.287854 207.164675 279.4239 207.164675 
z
" clip-path="url(#pede8f66c4d)" style="fill: #ffffff; stroke: #ffffff"/>
    <path d="M 352.206339 271.566334 
C 352.342386 271.566334 352.472878 271.512283 352.569077 271.416083 
C 352.665277 271.319884 352.719328 271.189391 352.719328 271.053345 
C 352.719328 270.917299 352.665277 270.786806 352.569077 270.690607 
C 352.472878 270.594408 352.342386 270.540356 352.206339 270.540356 
C 352.070293 270.540356 351.9398 270.594408 351.843601 270.690607 
C 351.747402 270.786806 351.69335 270.917299 351.69335 271.053345 
C 351.69335 271.189391 351.747402 271.319884 351.843601 271.416083 
C 351.9398 271.512283 352.070293 271.566334 352.206339 271.566334 
z
" clip-path="url(#pede8f66c4d)" style="fill: #ffffff; stroke: #ffffff"/>
    <path d="M 308.955696 275.686154 
C 309.142674 275.686154 309.322018 275.611867 309.454232 275.479653 
C 309.586445 275.34744 309.660732 275.168095 309.660732 274.981117 
C 309.660732 274.79414 309.586445 274.614795 309.454232 274.482582 
C 309.322018 274.350368 309.142674 274.276081 308.955696 274.276081 
C 308.768718 274.276081 308.589373 274.350368 308.45716 274.482582 
C 308.324947 274.614795 308.25066 274.79414 308.25066 274.981117 
C 308.25066 275.168095 308.324947 275.34744 308.45716 275.479653 
C 308.589373 275.611867 308.768718 275.686154 308.955696 275.686154 
z
" clip-path="url(#pede8f66c4d)" style="fill: #ffffff; stroke: #ffffff"/>
    <path d="M 257.214634 277.52524 
C 257.436797 277.52524 257.649891 277.436974 257.806983 277.279881 
C 257.964076 277.122788 258.052342 276.909695 258.052342 276.687532 
C 258.052342 276.465369 257.964076 276.252276 257.806983 276.095183 
C 257.649891 275.93809 257.436797 275.849824 257.214634 275.849824 
C 256.992472 275.849824 256.779378 275.93809 256.622286 276.095183 
C 256.465193 276.252276 256.376927 276.465369 256.376927 276.687532 
C 256.376927 276.909695 256.465193 277.122788 256.622286 277.279881 
C 256.779378 277.436974 256.992472 277.52524 257.214634 277.52524 
z
" clip-path="url(#pede8f66c4d)" style="fill: #ffffff; stroke: #ffffff"/>
    <path d="M 292.57691 197.120529 
C 292.57691 197.120529 292.57691 197.120529 292.57691 197.120529 
C 292.57691 197.120529 292.57691 197.120529 292.57691 197.120529 
C 292.57691 197.120529 292.57691 197.120529 292.57691 197.120529 
C 292.57691 197.120529 292.57691 197.120529 292.57691 197.120529 
C 292.57691 197.120529 292.57691 197.120529 292.57691 197.120529 
C 292.57691 197.120529 292.57691 197.120529 292.57691 197.120529 
C 292.57691 197.120529 292.57691 197.120529 292.57691 197.120529 
C 292.57691 197.120529 292.57691 197.120529 292.57691 197.120529 
z
" clip-path="url(#pede8f66c4d)" style="fill: #ffffff; stroke: #ffffff"/>
    <path d="M 383.730248 265.776897 
C 383.730248 265.776897 383.730248 265.776897 383.730248 265.776897 
C 383.730248 265.776897 383.730248 265.776897 383.730248 265.776897 
C 383.730248 265.776897 383.730248 265.776897 383.730248 265.776897 
C 383.730248 265.776897 383.730248 265.776897 383.730248 265.776897 
C 383.730248 265.776897 383.730248 265.776897 383.730248 265.776897 
C 383.730248 265.776897 383.730248 265.776897 383.730248 265.776897 
C 383.730248 265.776897 383.730248 265.776897 383.730248 265.776897 
C 383.730248 265.776897 383.730248 265.776897 383.730248 265.776897 
z
" clip-path="url(#pede8f66c4d)" style="fill: #ffffff; stroke: #ffffff"/>
    <path d="M 263.02501 219.389136 
C 263.211988 219.389136 263.391333 219.314849 263.523546 219.182636 
C 263.655759 219.050423 263.730046 218.871078 263.730046 218.6841 
C 263.730046 218.497122 263.655759 218.317777 263.523546 218.185564 
C 263.391333 218.053351 263.211988 217.979064 263.02501 217.979064 
C 262.838032 217.979064 262.658688 218.053351 262.526474 218.185564 
C 262.394261 218.317777 262.319974 218.497122 262.319974 218.6841 
C 262.319974 218.871078 262.394261 219.050423 262.526474 219.182636 
C 262.658688 219.314849 262.838032 219.389136 263.02501 219.389136 
z
" clip-path="url(#pede8f66c4d)" style="fill: #ffffff; stroke: #ffffff"/>
    <path d="M 178.034783 292.652844 
C 178.102806 292.652844 178.168052 292.625818 178.216152 292.577718 
C 178.264251 292.529619 178.291277 292.464373 178.291277 292.396349 
C 178.291277 292.328326 178.264251 292.26308 178.216152 292.21498 
C 178.168052 292.166881 178.102806 292.139855 178.034783 292.139855 
C 177.966759 292.139855 177.901513 292.166881 177.853413 292.21498 
C 177.805314 292.26308 177.778288 292.328326 177.778288 292.396349 
C 177.778288 292.464373 177.805314 292.529619 177.853413 292.577718 
C 177.901513 292.625818 177.966759 292.652844 178.034783 292.652844 
z
" clip-path="url(#pede8f66c4d)" style="fill: #ffffff; stroke: #ffffff"/>
    <path d="M 226.444171 224.182752 
C 226.444171 224.182752 226.444171 224.182752 226.444171 224.182752 
C 226.444171 224.182752 226.444171 224.182752 226.444171 224.182752 
C 226.444171 224.182752 226.444171 224.182752 226.444171 224.182752 
C 226.444171 224.182752 226.444171 224.182752 226.444171 224.182752 
C 226.444171 224.182752 226.444171 224.182752 226.444171 224.182752 
C 226.444171 224.182752 226.444171 224.182752 226.444171 224.182752 
C 226.444171 224.182752 226.444171 224.182752 226.444171 224.182752 
C 226.444171 224.182752 226.444171 224.182752 226.444171 224.182752 
z
" clip-path="url(#pede8f66c4d)" style="fill: #ffffff; stroke: #ffffff"/>
   </g>
   <g id="text_2">
    <!-- Betweenness centrality -->
    <g transform="translate(165.7275 180.624) scale(0.12 -0.12)">
     <defs>
      <path id="DejaVuSans-42" d="M 1259 2228 
L 1259 519 
L 2272 519 
Q 2781 519 3026 730 
Q 3272 941 3272 1375 
Q 3272 1813 3026 2020 
Q 2781 2228 2272 2228 
L 1259 2228 
z
M 1259 4147 
L 1259 2741 
L 2194 2741 
Q 2656 2741 2882 2914 
Q 3109 3088 3109 3444 
Q 3109 3797 2882 3972 
Q 2656 4147 2194 4147 
L 1259 4147 
z
M 628 4666 
L 2241 4666 
Q 2963 4666 3353 4366 
Q 3744 4066 3744 3513 
Q 3744 3084 3544 2831 
Q 3344 2578 2956 2516 
Q 3422 2416 3680 2098 
Q 3938 1781 3938 1306 
Q 3938 681 3513 340 
Q 3088 0 2303 0 
L 628 0 
L 628 4666 
z
" transform="scale(0.015625)"/>
      <path id="DejaVuSans-77" d="M 269 3500 
L 844 3500 
L 1563 769 
L 2278 3500 
L 2956 3500 
L 3675 769 
L 4391 3500 
L 4966 3500 
L 4050 0 
L 3372 0 
L 2619 2869 
L 1863 0 
L 1184 0 
L 269 3500 
z
" transform="scale(0.015625)"/>
      <path id="DejaVuSans-73" d="M 2834 3397 
L 2834 2853 
Q 2591 2978 2328 3040 
Q 2066 3103 1784 3103 
Q 1356 3103 1142 2972 
Q 928 2841 928 2578 
Q 928 2378 1081 2264 
Q 1234 2150 1697 2047 
L 1894 2003 
Q 2506 1872 2764 1633 
Q 3022 1394 3022 966 
Q 3022 478 2636 193 
Q 2250 -91 1575 -91 
Q 1294 -91 989 -36 
Q 684 19 347 128 
L 347 722 
Q 666 556 975 473 
Q 1284 391 1588 391 
Q 1994 391 2212 530 
Q 2431 669 2431 922 
Q 2431 1156 2273 1281 
Q 2116 1406 1581 1522 
L 1381 1569 
Q 847 1681 609 1914 
Q 372 2147 372 2553 
Q 372 3047 722 3315 
Q 1072 3584 1716 3584 
Q 2034 3584 2315 3537 
Q 2597 3491 2834 3397 
z
" transform="scale(0.015625)"/>
     </defs>
     <use xlink:href="#DejaVuSans-42"/>
     <use xlink:href="#DejaVuSans-65" x="68.603516"/>
     <use xlink:href="#DejaVuSans-74" x="130.126953"/>
     <use xlink:href="#DejaVuSans-77" x="169.335938"/>
     <use xlink:href="#DejaVuSans-65" x="251.123047"/>
     <use xlink:href="#DejaVuSans-65" x="312.646484"/>
     <use xlink:href="#DejaVuSans-6e" x="374.169922"/>
     <use xlink:href="#DejaVuSans-6e" x="437.548828"/>
     <use xlink:href="#DejaVuSans-65" x="500.927734"/>
     <use xlink:href="#DejaVuSans-73" x="562.451172"/>
     <use xlink:href="#DejaVuSans-73" x="614.550781"/>
     <use xlink:href="#DejaVuSans-20" x="666.650391"/>
     <use xlink:href="#DejaVuSans-63" x="698.4375"/>
     <use xlink:href="#DejaVuSans-65" x="753.417969"/>
     <use xlink:href="#DejaVuSans-6e" x="814.941406"/>
     <use xlink:href="#DejaVuSans-74" x="878.320312"/>
     <use xlink:href="#DejaVuSans-72" x="917.529297"/>
     <use xlink:href="#DejaVuSans-61" x="958.642578"/>
     <use xlink:href="#DejaVuSans-6c" x="1019.921875"/>
     <use xlink:href="#DejaVuSans-69" x="1047.705078"/>
     <use xlink:href="#DejaVuSans-74" x="1075.488281"/>
     <use xlink:href="#DejaVuSans-79" x="1114.697266"/>
    </g>
   </g>
  </g>
 </g>
 <defs>
  <clipPath id="p4d8349b8e7">
   <rect x="57.6" y="41.472" width="357.12" height="120.96"/>
  </clipPath>
  <clipPath id="pede8f66c4d">
   <rect x="57.6" y="186.624" width="357.12" height="120.96"/>
  </clipPath>
 </defs>
</svg>
