<?xml version="1.0" encoding="utf-8" standalone="no"?>
<!DOCTYPE svg PUBLIC "-//W3C//DTD SVG 1.1//EN"
  "http://www.w3.org/Graphics/SVG/1.1/DTD/svg11.dtd">
<svg xmlns:xlink="http://www.w3.org/1999/xlink" width="1008pt" height="360pt" viewBox="0 0 1008 360" xmlns="http://www.w3.org/2000/svg" version="1.1">
 <metadata>
  <rdf:RDF xmlns:dc="http://purl.org/dc/elements/1.1/" xmlns:cc="http://creativecommons.org/ns#" xmlns:rdf="http://www.w3.org/1999/02/22-rdf-syntax-ns#">
   <cc:Work>
    <dc:type rdf:resource="http://purl.org/dc/dcmitype/StillImage"/>
    <dc:date>2023-09-04T11:46:58.682642</dc:date>
    <dc:format>image/svg+xml</dc:format>
    <dc:creator>
     <cc:Agent>
      <dc:title>Matplotlib v3.7.1, https://matplotlib.org/</dc:title>
     </cc:Agent>
    </dc:creator>
   </cc:Work>
  </rdf:RDF>
 </metadata>
 <defs>
  <style type="text/css">*{stroke-linejoin: round; stroke-linecap: butt}</style>
 </defs>
 <g id="figure_1">
  <g id="patch_1">
   <path d="M 0 360 
L 1008 360 
L 1008 0 
L 0 0 
z
" style="fill: #ffffff"/>
  </g>
  <g id="axes_1">
   <g id="patch_2">
    <path d="M 375.284706 70.289145 
Q 376.991876 77.492754 378.699046 84.696363 
" clip-path="url(#p6fa7aa3789)" style="fill: none; stroke: #000000; stroke-linecap: round"/>
   </g>
   <g id="patch_3">
    <path d="M 370.387505 66.833079 
Q 313.865249 73.041077 257.342994 79.249076 
" clip-path="url(#p6fa7aa3789)" style="fill: none; stroke: #000000; stroke-linecap: round"/>
   </g>
   <g id="patch_4">
    <path d="M 370.596496 65.047816 
Q 357.244302 60.265643 343.892108 55.483471 
" clip-path="url(#p6fa7aa3789)" style="fill: none; stroke: #000000; stroke-linecap: round"/>
   </g>
   <g id="patch_5">
    <path d="M 378.333099 65.910397 
Q 413.016373 61.664365 447.699647 57.418333 
" clip-path="url(#p6fa7aa3789)" style="fill: none; stroke: #000000; stroke-linecap: round"/>
   </g>
   <g id="patch_6">
    <path d="M 376.605372 85.956729 
Q 359.870993 71.359281 343.136614 56.761833 
" clip-path="url(#p6fa7aa3789)" style="fill: none; stroke: #000000; stroke-linecap: round"/>
   </g>
   <g id="patch_7">
    <path d="M 383.273872 86.959774 
Q 415.587536 72.560661 447.9012 58.161548 
" clip-path="url(#p6fa7aa3789)" style="fill: none; stroke: #000000; stroke-linecap: round"/>
   </g>
   <g id="patch_8">
    <path d="M 375.92893 90.123309 
Q 329.218797 109.553498 282.508665 128.983687 
" clip-path="url(#p6fa7aa3789)" style="fill: none; stroke: #ff0000; stroke-width: 2; stroke-linecap: round"/>
   </g>
   <g id="patch_9">
    <path d="M 257.251382 78.792155 
Q 296.771899 67.033046 336.292417 55.273938 
" clip-path="url(#p6fa7aa3789)" style="fill: none; stroke: #000000; stroke-linecap: round"/>
   </g>
   <g id="patch_10">
    <path d="M 252.769907 81.201667 
Q 229.351877 100.809103 205.933846 120.41654 
" clip-path="url(#p6fa7aa3789)" style="fill: none; stroke: #ff0000; stroke-width: 2; stroke-linecap: round"/>
   </g>
   <g id="patch_11">
    <path d="M 344.120914 54.241612 
Q 395.901601 55.637224 447.682288 57.032836 
" clip-path="url(#p6fa7aa3789)" style="fill: none; stroke: #000000; stroke-linecap: round"/>
   </g>
   <g id="patch_12">
    <path d="M 160.790082 143.713603 
Q 216.289783 137.721854 271.789483 131.730105 
" clip-path="url(#p6fa7aa3789)" style="fill: none; stroke: #000000; stroke-linecap: round"/>
   </g>
   <g id="patch_13">
    <path d="M 160.789023 144.608072 
Q 202.77853 149.521479 244.768037 154.434886 
" clip-path="url(#p6fa7aa3789)" style="fill: none; stroke: #000000; stroke-linecap: round"/>
   </g>
   <g id="patch_14">
    <path d="M 160.461545 142.504348 
Q 178.505344 134.399446 196.549144 126.294544 
" clip-path="url(#p6fa7aa3789)" style="fill: none; stroke: #000000; stroke-linecap: round"/>
   </g>
   <g id="patch_15">
    <path d="M 160.476828 145.751412 
Q 172.895287 151.204444 185.313746 156.657475 
" clip-path="url(#p6fa7aa3789)" style="fill: none; stroke: #000000; stroke-linecap: round"/>
   </g>
   <g id="patch_16">
    <path d="M 273.050657 134.701784 
Q 262.435459 143.522497 251.820261 152.343211 
" clip-path="url(#p6fa7aa3789)" style="fill: none; stroke: #000000; stroke-linecap: round"/>
   </g>
   <g id="patch_17">
    <path d="M 271.781751 130.605739 
Q 239.500308 127.566694 207.218866 124.527649 
" clip-path="url(#p6fa7aa3789)" style="fill: none; stroke: #000000; stroke-linecap: round"/>
   </g>
   <g id="patch_18">
    <path d="M 272.006674 132.770404 
Q 232.403726 144.931208 192.800777 157.092012 
" clip-path="url(#p6fa7aa3789)" style="fill: none; stroke: #000000; stroke-linecap: round"/>
   </g>
   <g id="patch_19">
    <path d="M 245.400395 152.706882 
Q 225.863023 139.888938 206.325651 127.070994 
" clip-path="url(#p6fa7aa3789)" style="fill: none; stroke: #000000; stroke-linecap: round"/>
   </g>
   <g id="patch_20">
    <path d="M 244.748887 155.125013 
Q 218.859502 156.583122 192.970116 158.041231 
" clip-path="url(#p6fa7aa3789)" style="fill: none; stroke: #000000; stroke-linecap: round"/>
   </g>
   <g id="patch_21">
    <path d="M 199.711578 129.244004 
Q 195.038212 141.87918 190.364845 154.514356 
" clip-path="url(#p6fa7aa3789)" style="fill: none; stroke: #000000; stroke-linecap: round"/>
   </g>
   <g id="PathCollection_1">
    <path d="M 374.362202 70.396527 
C 375.423014 70.396527 376.440521 69.975062 377.190629 69.224954 
C 377.940736 68.474846 378.362202 67.457339 378.362202 66.396527 
C 378.362202 65.335714 377.940736 64.318207 377.190629 63.5681 
C 376.440521 62.817992 375.423014 62.396527 374.362202 62.396527 
C 373.301389 62.396527 372.283882 62.817992 371.533774 63.5681 
C 370.783667 64.318207 370.362202 65.335714 370.362202 66.396527 
C 370.362202 67.457339 370.783667 68.474846 371.533774 69.224954 
C 372.283882 69.975062 373.301389 70.396527 374.362202 70.396527 
z
" clip-path="url(#p6fa7aa3789)" style="fill: #ffffff; stroke: #000000"/>
    <path d="M 379.621182 92.587429 
C 380.681994 92.587429 381.699501 92.165963 382.449609 91.415856 
C 383.199717 90.665748 383.621182 89.648241 383.621182 88.587429 
C 383.621182 87.526616 383.199717 86.509109 382.449609 85.759002 
C 381.699501 85.008894 380.681994 84.587429 379.621182 84.587429 
C 378.56037 84.587429 377.542862 85.008894 376.792755 85.759002 
C 376.042647 86.509109 375.621182 87.526616 375.621182 88.587429 
C 375.621182 89.648241 376.042647 90.665748 376.792755 91.415856 
C 377.542862 92.165963 378.56037 92.587429 379.621182 92.587429 
z
" clip-path="url(#p6fa7aa3789)" style="fill: #ffffff; stroke: #000000"/>
    <path d="M 254.763616 82.130452 
C 255.452634 82.130452 256.113524 81.856702 256.600733 81.369493 
C 257.087942 80.882284 257.361692 80.221394 257.361692 79.532376 
C 257.361692 78.843358 257.087942 78.182468 256.600733 77.695259 
C 256.113524 77.208049 255.452634 76.9343 254.763616 76.9343 
C 254.074598 76.9343 253.413708 77.208049 252.926499 77.695259 
C 252.439289 78.182468 252.16554 78.843358 252.16554 79.532376 
C 252.16554 80.221394 252.439289 80.882284 252.926499 81.369493 
C 253.413708 81.856702 254.074598 82.130452 254.763616 82.130452 
z
" clip-path="url(#p6fa7aa3789)" style="fill: #ffffff; stroke: #000000"/>
    <path d="M 340.123958 58.133884 
C 341.184771 58.133884 342.202278 57.712419 342.952385 56.962311 
C 343.702493 56.212204 344.123958 55.194697 344.123958 54.133884 
C 344.123958 53.073072 343.702493 52.055565 342.952385 51.305457 
C 342.202278 50.55535 341.184771 50.133884 340.123958 50.133884 
C 339.063146 50.133884 338.045639 50.55535 337.295531 51.305457 
C 336.545423 52.055565 336.123958 53.073072 336.123958 54.133884 
C 336.123958 55.194697 336.545423 56.212204 337.295531 56.962311 
C 338.045639 57.712419 339.063146 58.133884 340.123958 58.133884 
z
" clip-path="url(#p6fa7aa3789)" style="fill: #ffffff; stroke: #000000"/>
    <path d="M 450.277235 59.700853 
C 450.966253 59.700853 451.627143 59.427103 452.114352 58.939894 
C 452.601562 58.452684 452.875311 57.791794 452.875311 57.102776 
C 452.875311 56.413759 452.601562 55.752868 452.114352 55.265659 
C 451.627143 54.77845 450.966253 54.5047 450.277235 54.5047 
C 449.588217 54.5047 448.927327 54.77845 448.440118 55.265659 
C 447.952909 55.752868 447.679159 56.413759 447.679159 57.102776 
C 447.679159 57.791794 447.952909 58.452684 448.440118 58.939894 
C 448.927327 59.427103 449.588217 59.700853 450.277235 59.700853 
z
" clip-path="url(#p6fa7aa3789)" style="fill: #ffffff; stroke: #000000"/>
    <path d="M 156.813674 148.142896 
C 157.874486 148.142896 158.891993 147.721431 159.642101 146.971323 
C 160.392209 146.221216 160.813674 145.203708 160.813674 144.142896 
C 160.813674 143.082084 160.392209 142.064577 159.642101 141.314469 
C 158.891993 140.564361 157.874486 140.142896 156.813674 140.142896 
C 155.752862 140.142896 154.735354 140.564361 153.985247 141.314469 
C 153.235139 142.064577 152.813674 143.082084 152.813674 144.142896 
C 152.813674 145.203708 153.235139 146.221216 153.985247 146.971323 
C 154.735354 147.721431 155.752862 148.142896 156.813674 148.142896 
z
" clip-path="url(#p6fa7aa3789)" style="fill: #191919; stroke: #000000"/>
    <path d="M 277.349235 136.720044 
C 278.831766 136.720044 280.253775 136.131028 281.302082 135.082721 
C 282.35039 134.034414 282.939405 132.612404 282.939405 131.129874 
C 282.939405 129.647344 282.35039 128.225334 281.302082 127.177027 
C 280.253775 126.12872 278.831766 125.539704 277.349235 125.539704 
C 275.866705 125.539704 274.444696 126.12872 273.396388 127.177027 
C 272.348081 128.225334 271.759065 129.647344 271.759065 131.129874 
C 271.759065 132.612404 272.348081 134.034414 273.396388 135.082721 
C 274.444696 136.131028 275.866705 136.720044 277.349235 136.720044 
z
" clip-path="url(#p6fa7aa3789)" style="fill: #191919; stroke: #000000"/>
    <path d="M 248.743263 158.900047 
C 249.804076 158.900047 250.821583 158.478582 251.57169 157.728474 
C 252.321798 156.978367 252.743263 155.96086 252.743263 154.900047 
C 252.743263 153.839235 252.321798 152.821728 251.57169 152.07162 
C 250.821583 151.321513 249.804076 150.900047 248.743263 150.900047 
C 247.682451 150.900047 246.664944 151.321513 245.914836 152.07162 
C 245.164729 152.821728 244.743263 153.839235 244.743263 154.900047 
C 244.743263 155.96086 245.164729 156.978367 245.914836 157.728474 
C 246.664944 158.478582 247.682451 158.900047 248.743263 158.900047 
z
" clip-path="url(#p6fa7aa3789)" style="fill: #191919; stroke: #000000"/>
    <path d="M 201.649926 129.593547 
C 203.132457 129.593547 204.554466 129.004532 205.602774 127.956224 
C 206.651081 126.907917 207.240096 125.485908 207.240096 124.003377 
C 207.240096 122.520847 206.651081 121.098838 205.602774 120.05053 
C 204.554466 119.002223 203.132457 118.413207 201.649926 118.413207 
C 200.167396 118.413207 198.745387 119.002223 197.697079 120.05053 
C 196.648772 121.098838 196.059756 122.520847 196.059756 124.003377 
C 196.059756 125.485908 196.648772 126.907917 197.697079 127.956224 
C 198.745387 129.004532 200.167396 129.593547 201.649926 129.593547 
z
" clip-path="url(#p6fa7aa3789)" style="fill: #191919; stroke: #000000"/>
    <path d="M 188.977183 162.266116 
C 190.037996 162.266116 191.055503 161.84465 191.80561 161.094543 
C 192.555718 160.344435 192.977183 159.326928 192.977183 158.266116 
C 192.977183 157.205303 192.555718 156.187796 191.80561 155.437689 
C 191.055503 154.687581 190.037996 154.266116 188.977183 154.266116 
C 187.916371 154.266116 186.898864 154.687581 186.148756 155.437689 
C 185.398649 156.187796 184.977183 157.205303 184.977183 158.266116 
C 184.977183 159.326928 185.398649 160.344435 186.148756 161.094543 
C 186.898864 161.84465 187.916371 162.266116 188.977183 162.266116 
z
" clip-path="url(#p6fa7aa3789)" style="fill: #191919; stroke: #000000"/>
   </g>
   <g id="text_1">
    <!-- Graph nodes clustered with $v_2$ values -->
    <g transform="translate(190.925455 37.2) scale(0.12 -0.12)">
     <defs>
      <path id="DejaVuSans-47" d="M 3809 666 
L 3809 1919 
L 2778 1919 
L 2778 2438 
L 4434 2438 
L 4434 434 
Q 4069 175 3628 42 
Q 3188 -91 2688 -91 
Q 1594 -91 976 548 
Q 359 1188 359 2328 
Q 359 3472 976 4111 
Q 1594 4750 2688 4750 
Q 3144 4750 3555 4637 
Q 3966 4525 4313 4306 
L 4313 3634 
Q 3963 3931 3569 4081 
Q 3175 4231 2741 4231 
Q 1884 4231 1454 3753 
Q 1025 3275 1025 2328 
Q 1025 1384 1454 906 
Q 1884 428 2741 428 
Q 3075 428 3337 486 
Q 3600 544 3809 666 
z
" transform="scale(0.015625)"/>
      <path id="DejaVuSans-72" d="M 2631 2963 
Q 2534 3019 2420 3045 
Q 2306 3072 2169 3072 
Q 1681 3072 1420 2755 
Q 1159 2438 1159 1844 
L 1159 0 
L 581 0 
L 581 3500 
L 1159 3500 
L 1159 2956 
Q 1341 3275 1631 3429 
Q 1922 3584 2338 3584 
Q 2397 3584 2469 3576 
Q 2541 3569 2628 3553 
L 2631 2963 
z
" transform="scale(0.015625)"/>
      <path id="DejaVuSans-61" d="M 2194 1759 
Q 1497 1759 1228 1600 
Q 959 1441 959 1056 
Q 959 750 1161 570 
Q 1363 391 1709 391 
Q 2188 391 2477 730 
Q 2766 1069 2766 1631 
L 2766 1759 
L 2194 1759 
z
M 3341 1997 
L 3341 0 
L 2766 0 
L 2766 531 
Q 2569 213 2275 61 
Q 1981 -91 1556 -91 
Q 1019 -91 701 211 
Q 384 513 384 1019 
Q 384 1609 779 1909 
Q 1175 2209 1959 2209 
L 2766 2209 
L 2766 2266 
Q 2766 2663 2505 2880 
Q 2244 3097 1772 3097 
Q 1472 3097 1187 3025 
Q 903 2953 641 2809 
L 641 3341 
Q 956 3463 1253 3523 
Q 1550 3584 1831 3584 
Q 2591 3584 2966 3190 
Q 3341 2797 3341 1997 
z
" transform="scale(0.015625)"/>
      <path id="DejaVuSans-70" d="M 1159 525 
L 1159 -1331 
L 581 -1331 
L 581 3500 
L 1159 3500 
L 1159 2969 
Q 1341 3281 1617 3432 
Q 1894 3584 2278 3584 
Q 2916 3584 3314 3078 
Q 3713 2572 3713 1747 
Q 3713 922 3314 415 
Q 2916 -91 2278 -91 
Q 1894 -91 1617 61 
Q 1341 213 1159 525 
z
M 3116 1747 
Q 3116 2381 2855 2742 
Q 2594 3103 2138 3103 
Q 1681 3103 1420 2742 
Q 1159 2381 1159 1747 
Q 1159 1113 1420 752 
Q 1681 391 2138 391 
Q 2594 391 2855 752 
Q 3116 1113 3116 1747 
z
" transform="scale(0.015625)"/>
      <path id="DejaVuSans-68" d="M 3513 2113 
L 3513 0 
L 2938 0 
L 2938 2094 
Q 2938 2591 2744 2837 
Q 2550 3084 2163 3084 
Q 1697 3084 1428 2787 
Q 1159 2491 1159 1978 
L 1159 0 
L 581 0 
L 581 4863 
L 1159 4863 
L 1159 2956 
Q 1366 3272 1645 3428 
Q 1925 3584 2291 3584 
Q 2894 3584 3203 3211 
Q 3513 2838 3513 2113 
z
" transform="scale(0.015625)"/>
      <path id="DejaVuSans-20" transform="scale(0.015625)"/>
      <path id="DejaVuSans-6e" d="M 3513 2113 
L 3513 0 
L 2938 0 
L 2938 2094 
Q 2938 2591 2744 2837 
Q 2550 3084 2163 3084 
Q 1697 3084 1428 2787 
Q 1159 2491 1159 1978 
L 1159 0 
L 581 0 
L 581 3500 
L 1159 3500 
L 1159 2956 
Q 1366 3272 1645 3428 
Q 1925 3584 2291 3584 
Q 2894 3584 3203 3211 
Q 3513 2838 3513 2113 
z
" transform="scale(0.015625)"/>
      <path id="DejaVuSans-6f" d="M 1959 3097 
Q 1497 3097 1228 2736 
Q 959 2375 959 1747 
Q 959 1119 1226 758 
Q 1494 397 1959 397 
Q 2419 397 2687 759 
Q 2956 1122 2956 1747 
Q 2956 2369 2687 2733 
Q 2419 3097 1959 3097 
z
M 1959 3584 
Q 2709 3584 3137 3096 
Q 3566 2609 3566 1747 
Q 3566 888 3137 398 
Q 2709 -91 1959 -91 
Q 1206 -91 779 398 
Q 353 888 353 1747 
Q 353 2609 779 3096 
Q 1206 3584 1959 3584 
z
" transform="scale(0.015625)"/>
      <path id="DejaVuSans-64" d="M 2906 2969 
L 2906 4863 
L 3481 4863 
L 3481 0 
L 2906 0 
L 2906 525 
Q 2725 213 2448 61 
Q 2172 -91 1784 -91 
Q 1150 -91 751 415 
Q 353 922 353 1747 
Q 353 2572 751 3078 
Q 1150 3584 1784 3584 
Q 2172 3584 2448 3432 
Q 2725 3281 2906 2969 
z
M 947 1747 
Q 947 1113 1208 752 
Q 1469 391 1925 391 
Q 2381 391 2643 752 
Q 2906 1113 2906 1747 
Q 2906 2381 2643 2742 
Q 2381 3103 1925 3103 
Q 1469 3103 1208 2742 
Q 947 2381 947 1747 
z
" transform="scale(0.015625)"/>
      <path id="DejaVuSans-65" d="M 3597 1894 
L 3597 1613 
L 953 1613 
Q 991 1019 1311 708 
Q 1631 397 2203 397 
Q 2534 397 2845 478 
Q 3156 559 3463 722 
L 3463 178 
Q 3153 47 2828 -22 
Q 2503 -91 2169 -91 
Q 1331 -91 842 396 
Q 353 884 353 1716 
Q 353 2575 817 3079 
Q 1281 3584 2069 3584 
Q 2775 3584 3186 3129 
Q 3597 2675 3597 1894 
z
M 3022 2063 
Q 3016 2534 2758 2815 
Q 2500 3097 2075 3097 
Q 1594 3097 1305 2825 
Q 1016 2553 972 2059 
L 3022 2063 
z
" transform="scale(0.015625)"/>
      <path id="DejaVuSans-73" d="M 2834 3397 
L 2834 2853 
Q 2591 2978 2328 3040 
Q 2066 3103 1784 3103 
Q 1356 3103 1142 2972 
Q 928 2841 928 2578 
Q 928 2378 1081 2264 
Q 1234 2150 1697 2047 
L 1894 2003 
Q 2506 1872 2764 1633 
Q 3022 1394 3022 966 
Q 3022 478 2636 193 
Q 2250 -91 1575 -91 
Q 1294 -91 989 -36 
Q 684 19 347 128 
L 347 722 
Q 666 556 975 473 
Q 1284 391 1588 391 
Q 1994 391 2212 530 
Q 2431 669 2431 922 
Q 2431 1156 2273 1281 
Q 2116 1406 1581 1522 
L 1381 1569 
Q 847 1681 609 1914 
Q 372 2147 372 2553 
Q 372 3047 722 3315 
Q 1072 3584 1716 3584 
Q 2034 3584 2315 3537 
Q 2597 3491 2834 3397 
z
" transform="scale(0.015625)"/>
      <path id="DejaVuSans-63" d="M 3122 3366 
L 3122 2828 
Q 2878 2963 2633 3030 
Q 2388 3097 2138 3097 
Q 1578 3097 1268 2742 
Q 959 2388 959 1747 
Q 959 1106 1268 751 
Q 1578 397 2138 397 
Q 2388 397 2633 464 
Q 2878 531 3122 666 
L 3122 134 
Q 2881 22 2623 -34 
Q 2366 -91 2075 -91 
Q 1284 -91 818 406 
Q 353 903 353 1747 
Q 353 2603 823 3093 
Q 1294 3584 2113 3584 
Q 2378 3584 2631 3529 
Q 2884 3475 3122 3366 
z
" transform="scale(0.015625)"/>
      <path id="DejaVuSans-6c" d="M 603 4863 
L 1178 4863 
L 1178 0 
L 603 0 
L 603 4863 
z
" transform="scale(0.015625)"/>
      <path id="DejaVuSans-75" d="M 544 1381 
L 544 3500 
L 1119 3500 
L 1119 1403 
Q 1119 906 1312 657 
Q 1506 409 1894 409 
Q 2359 409 2629 706 
Q 2900 1003 2900 1516 
L 2900 3500 
L 3475 3500 
L 3475 0 
L 2900 0 
L 2900 538 
Q 2691 219 2414 64 
Q 2138 -91 1772 -91 
Q 1169 -91 856 284 
Q 544 659 544 1381 
z
M 1991 3584 
L 1991 3584 
z
" transform="scale(0.015625)"/>
      <path id="DejaVuSans-74" d="M 1172 4494 
L 1172 3500 
L 2356 3500 
L 2356 3053 
L 1172 3053 
L 1172 1153 
Q 1172 725 1289 603 
Q 1406 481 1766 481 
L 2356 481 
L 2356 0 
L 1766 0 
Q 1100 0 847 248 
Q 594 497 594 1153 
L 594 3053 
L 172 3053 
L 172 3500 
L 594 3500 
L 594 4494 
L 1172 4494 
z
" transform="scale(0.015625)"/>
      <path id="DejaVuSans-77" d="M 269 3500 
L 844 3500 
L 1563 769 
L 2278 3500 
L 2956 3500 
L 3675 769 
L 4391 3500 
L 4966 3500 
L 4050 0 
L 3372 0 
L 2619 2869 
L 1863 0 
L 1184 0 
L 269 3500 
z
" transform="scale(0.015625)"/>
      <path id="DejaVuSans-69" d="M 603 3500 
L 1178 3500 
L 1178 0 
L 603 0 
L 603 3500 
z
M 603 4863 
L 1178 4863 
L 1178 4134 
L 603 4134 
L 603 4863 
z
" transform="scale(0.015625)"/>
      <path id="DejaVuSans-Oblique-76" d="M 459 3500 
L 1069 3500 
L 1581 525 
L 3256 3500 
L 3866 3500 
L 1875 0 
L 1100 0 
L 459 3500 
z
" transform="scale(0.015625)"/>
      <path id="DejaVuSans-32" d="M 1228 531 
L 3431 531 
L 3431 0 
L 469 0 
L 469 531 
Q 828 903 1448 1529 
Q 2069 2156 2228 2338 
Q 2531 2678 2651 2914 
Q 2772 3150 2772 3378 
Q 2772 3750 2511 3984 
Q 2250 4219 1831 4219 
Q 1534 4219 1204 4116 
Q 875 4013 500 3803 
L 500 4441 
Q 881 4594 1212 4672 
Q 1544 4750 1819 4750 
Q 2544 4750 2975 4387 
Q 3406 4025 3406 3419 
Q 3406 3131 3298 2873 
Q 3191 2616 2906 2266 
Q 2828 2175 2409 1742 
Q 1991 1309 1228 531 
z
" transform="scale(0.015625)"/>
      <path id="DejaVuSans-76" d="M 191 3500 
L 800 3500 
L 1894 563 
L 2988 3500 
L 3597 3500 
L 2284 0 
L 1503 0 
L 191 3500 
z
" transform="scale(0.015625)"/>
     </defs>
     <use xlink:href="#DejaVuSans-47" transform="translate(0 0.015625)"/>
     <use xlink:href="#DejaVuSans-72" transform="translate(77.490234 0.015625)"/>
     <use xlink:href="#DejaVuSans-61" transform="translate(118.603516 0.015625)"/>
     <use xlink:href="#DejaVuSans-70" transform="translate(179.882812 0.015625)"/>
     <use xlink:href="#DejaVuSans-68" transform="translate(243.359375 0.015625)"/>
     <use xlink:href="#DejaVuSans-20" transform="translate(306.738281 0.015625)"/>
     <use xlink:href="#DejaVuSans-6e" transform="translate(338.525391 0.015625)"/>
     <use xlink:href="#DejaVuSans-6f" transform="translate(401.904297 0.015625)"/>
     <use xlink:href="#DejaVuSans-64" transform="translate(463.085938 0.015625)"/>
     <use xlink:href="#DejaVuSans-65" transform="translate(526.5625 0.015625)"/>
     <use xlink:href="#DejaVuSans-73" transform="translate(588.085938 0.015625)"/>
     <use xlink:href="#DejaVuSans-20" transform="translate(640.185547 0.015625)"/>
     <use xlink:href="#DejaVuSans-63" transform="translate(671.972656 0.015625)"/>
     <use xlink:href="#DejaVuSans-6c" transform="translate(726.953125 0.015625)"/>
     <use xlink:href="#DejaVuSans-75" transform="translate(754.736328 0.015625)"/>
     <use xlink:href="#DejaVuSans-73" transform="translate(818.115234 0.015625)"/>
     <use xlink:href="#DejaVuSans-74" transform="translate(870.214844 0.015625)"/>
     <use xlink:href="#DejaVuSans-65" transform="translate(909.423828 0.015625)"/>
     <use xlink:href="#DejaVuSans-72" transform="translate(970.947266 0.015625)"/>
     <use xlink:href="#DejaVuSans-65" transform="translate(1012.060547 0.015625)"/>
     <use xlink:href="#DejaVuSans-64" transform="translate(1073.583984 0.015625)"/>
     <use xlink:href="#DejaVuSans-20" transform="translate(1137.060547 0.015625)"/>
     <use xlink:href="#DejaVuSans-77" transform="translate(1168.847656 0.015625)"/>
     <use xlink:href="#DejaVuSans-69" transform="translate(1250.634766 0.015625)"/>
     <use xlink:href="#DejaVuSans-74" transform="translate(1278.417969 0.015625)"/>
     <use xlink:href="#DejaVuSans-68" transform="translate(1317.626953 0.015625)"/>
     <use xlink:href="#DejaVuSans-20" transform="translate(1381.005859 0.015625)"/>
     <use xlink:href="#DejaVuSans-Oblique-76" transform="translate(1412.792969 0.015625)"/>
     <use xlink:href="#DejaVuSans-32" transform="translate(1471.972656 -16.390625) scale(0.7)"/>
     <use xlink:href="#DejaVuSans-20" transform="translate(1519.243164 0.015625)"/>
     <use xlink:href="#DejaVuSans-76" transform="translate(1551.030273 0.015625)"/>
     <use xlink:href="#DejaVuSans-61" transform="translate(1610.209961 0.015625)"/>
     <use xlink:href="#DejaVuSans-6c" transform="translate(1671.489258 0.015625)"/>
     <use xlink:href="#DejaVuSans-75" transform="translate(1699.272461 0.015625)"/>
     <use xlink:href="#DejaVuSans-65" transform="translate(1762.651367 0.015625)"/>
     <use xlink:href="#DejaVuSans-73" transform="translate(1824.174805 0.015625)"/>
    </g>
   </g>
   <g id="legend_1">
    <g id="patch_22">
     <path d="M 133 95.234375 
L 221.370313 95.234375 
Q 223.370313 95.234375 223.370313 93.234375 
L 223.370313 50.2 
Q 223.370313 48.2 221.370313 48.2 
L 133 48.2 
Q 131 48.2 131 50.2 
L 131 93.234375 
Q 131 95.234375 133 95.234375 
z
" style="fill: #ffffff; opacity: 0.8; stroke: #cccccc; stroke-linejoin: miter"/>
    </g>
    <g id="line2d_1">
     <path d="M 135 56.298437 
L 145 56.298437 
L 155 56.298437 
" style="fill: none; stroke: #ff0000; stroke-width: 2; stroke-linecap: square"/>
    </g>
    <g id="text_2">
     <!-- Cluster cut -->
     <g transform="translate(163 59.798437) scale(0.1 -0.1)">
      <defs>
       <path id="DejaVuSans-43" d="M 4122 4306 
L 4122 3641 
Q 3803 3938 3442 4084 
Q 3081 4231 2675 4231 
Q 1875 4231 1450 3742 
Q 1025 3253 1025 2328 
Q 1025 1406 1450 917 
Q 1875 428 2675 428 
Q 3081 428 3442 575 
Q 3803 722 4122 1019 
L 4122 359 
Q 3791 134 3420 21 
Q 3050 -91 2638 -91 
Q 1578 -91 968 557 
Q 359 1206 359 2328 
Q 359 3453 968 4101 
Q 1578 4750 2638 4750 
Q 3056 4750 3426 4639 
Q 3797 4528 4122 4306 
z
" transform="scale(0.015625)"/>
      </defs>
      <use xlink:href="#DejaVuSans-43"/>
      <use xlink:href="#DejaVuSans-6c" x="69.824219"/>
      <use xlink:href="#DejaVuSans-75" x="97.607422"/>
      <use xlink:href="#DejaVuSans-73" x="160.986328"/>
      <use xlink:href="#DejaVuSans-74" x="213.085938"/>
      <use xlink:href="#DejaVuSans-65" x="252.294922"/>
      <use xlink:href="#DejaVuSans-72" x="313.818359"/>
      <use xlink:href="#DejaVuSans-20" x="354.931641"/>
      <use xlink:href="#DejaVuSans-63" x="386.71875"/>
      <use xlink:href="#DejaVuSans-75" x="441.699219"/>
      <use xlink:href="#DejaVuSans-74" x="505.078125"/>
     </g>
    </g>
    <g id="line2d_2">
     <path d="M 135 70.976562 
L 145 70.976562 
L 155 70.976562 
" style="fill: none; stroke: #000000; stroke-width: 1.5; stroke-linecap: square"/>
     <defs>
      <path id="m452062e49e" d="M 0 2.5 
C 0.663008 2.5 1.29895 2.236584 1.767767 1.767767 
C 2.236584 1.29895 2.5 0.663008 2.5 0 
C 2.5 -0.663008 2.236584 -1.29895 1.767767 -1.767767 
C 1.29895 -2.236584 0.663008 -2.5 0 -2.5 
C -0.663008 -2.5 -1.29895 -2.236584 -1.767767 -1.767767 
C -2.236584 -1.29895 -2.5 -0.663008 -2.5 0 
C -2.5 0.663008 -2.236584 1.29895 -1.767767 1.767767 
C -1.29895 2.236584 -0.663008 2.5 0 2.5 
z
" style="stroke: #000000"/>
     </defs>
     <g>
      <use xlink:href="#m452062e49e" x="145" y="70.976562" style="fill: #ffffff; stroke: #000000"/>
     </g>
    </g>
    <g id="text_3">
     <!-- Cluster n°1 -->
     <g transform="translate(163 74.476562) scale(0.1 -0.1)">
      <defs>
       <path id="DejaVuSans-b0" d="M 1600 4347 
Q 1350 4347 1178 4173 
Q 1006 4000 1006 3750 
Q 1006 3503 1178 3333 
Q 1350 3163 1600 3163 
Q 1850 3163 2022 3333 
Q 2194 3503 2194 3750 
Q 2194 3997 2020 4172 
Q 1847 4347 1600 4347 
z
M 1600 4750 
Q 1800 4750 1984 4673 
Q 2169 4597 2303 4453 
Q 2447 4313 2519 4134 
Q 2591 3956 2591 3750 
Q 2591 3338 2302 3052 
Q 2013 2766 1594 2766 
Q 1172 2766 890 3047 
Q 609 3328 609 3750 
Q 609 4169 896 4459 
Q 1184 4750 1600 4750 
z
" transform="scale(0.015625)"/>
       <path id="DejaVuSans-31" d="M 794 531 
L 1825 531 
L 1825 4091 
L 703 3866 
L 703 4441 
L 1819 4666 
L 2450 4666 
L 2450 531 
L 3481 531 
L 3481 0 
L 794 0 
L 794 531 
z
" transform="scale(0.015625)"/>
      </defs>
      <use xlink:href="#DejaVuSans-43"/>
      <use xlink:href="#DejaVuSans-6c" x="69.824219"/>
      <use xlink:href="#DejaVuSans-75" x="97.607422"/>
      <use xlink:href="#DejaVuSans-73" x="160.986328"/>
      <use xlink:href="#DejaVuSans-74" x="213.085938"/>
      <use xlink:href="#DejaVuSans-65" x="252.294922"/>
      <use xlink:href="#DejaVuSans-72" x="313.818359"/>
      <use xlink:href="#DejaVuSans-20" x="354.931641"/>
      <use xlink:href="#DejaVuSans-6e" x="386.71875"/>
      <use xlink:href="#DejaVuSans-b0" x="450.097656"/>
      <use xlink:href="#DejaVuSans-31" x="500.097656"/>
     </g>
    </g>
    <g id="line2d_3">
     <path d="M 135 85.654687 
L 145 85.654687 
L 155 85.654687 
" style="fill: none; stroke: #000000; stroke-width: 1.5; stroke-linecap: square"/>
     <defs>
      <path id="m2316dbb8b4" d="M 0 2.5 
C 0.663008 2.5 1.29895 2.236584 1.767767 1.767767 
C 2.236584 1.29895 2.5 0.663008 2.5 0 
C 2.5 -0.663008 2.236584 -1.29895 1.767767 -1.767767 
C 1.29895 -2.236584 0.663008 -2.5 0 -2.5 
C -0.663008 -2.5 -1.29895 -2.236584 -1.767767 -1.767767 
C -2.236584 -1.29895 -2.5 -0.663008 -2.5 0 
C -2.5 0.663008 -2.236584 1.29895 -1.767767 1.767767 
C -1.29895 2.236584 -0.663008 2.5 0 2.5 
z
" style="stroke: #000000"/>
     </defs>
     <g>
      <use xlink:href="#m2316dbb8b4" x="145" y="85.654687" style="stroke: #000000"/>
     </g>
    </g>
    <g id="text_4">
     <!-- Cluster n°2 -->
     <g transform="translate(163 89.154687) scale(0.1 -0.1)">
      <use xlink:href="#DejaVuSans-43"/>
      <use xlink:href="#DejaVuSans-6c" x="69.824219"/>
      <use xlink:href="#DejaVuSans-75" x="97.607422"/>
      <use xlink:href="#DejaVuSans-73" x="160.986328"/>
      <use xlink:href="#DejaVuSans-74" x="213.085938"/>
      <use xlink:href="#DejaVuSans-65" x="252.294922"/>
      <use xlink:href="#DejaVuSans-72" x="313.818359"/>
      <use xlink:href="#DejaVuSans-20" x="354.931641"/>
      <use xlink:href="#DejaVuSans-6e" x="386.71875"/>
      <use xlink:href="#DejaVuSans-b0" x="450.097656"/>
      <use xlink:href="#DejaVuSans-32" x="500.097656"/>
     </g>
    </g>
   </g>
  </g>
  <g id="axes_2">
   <g id="patch_23">
    <path d="M 552.109091 169.2 
L 907.2 169.2 
L 907.2 43.2 
L 552.109091 43.2 
z
" style="fill: #ffffff"/>
   </g>
   <g id="patch_24">
    <path d="M 568.249587 169.2 
L 711.720661 169.2 
L 711.720661 100.701712 
L 568.249587 100.701712 
z
" clip-path="url(#p79f74e75df)"/>
   </g>
   <g id="patch_25">
    <path d="M 747.58843 169.2 
L 891.059504 169.2 
L 891.059504 155.2 
L 747.58843 155.2 
z
" clip-path="url(#p79f74e75df)"/>
   </g>
   <g id="matplotlib.axis_1">
    <g id="xtick_1">
     <g id="line2d_4">
      <defs>
       <path id="m5323509875" d="M 0 0 
L 0 3.5 
" style="stroke: #000000; stroke-width: 0.8"/>
      </defs>
      <g>
       <use xlink:href="#m5323509875" x="639.985124" y="169.2" style="stroke: #000000; stroke-width: 0.8"/>
      </g>
     </g>
     <g id="text_5">
      <!-- $\lambda_2$ -->
      <g transform="translate(634.635124 183.798437) scale(0.1 -0.1)">
       <defs>
        <path id="DejaVuSans-Oblique-3bb" d="M 2350 4316 
L 3125 0 
L 2516 0 
L 2038 2588 
L 328 0 
L -281 0 
L 1903 3356 
L 1794 3975 
Q 1725 4369 1391 4369 
L 1091 4369 
L 1184 4863 
L 1550 4856 
Q 2253 4847 2350 4316 
z
" transform="scale(0.015625)"/>
       </defs>
       <use xlink:href="#DejaVuSans-Oblique-3bb" transform="translate(0 0.015625)"/>
       <use xlink:href="#DejaVuSans-32" transform="translate(59.179688 -16.390625) scale(0.7)"/>
      </g>
     </g>
    </g>
    <g id="xtick_2">
     <g id="line2d_5">
      <g>
       <use xlink:href="#m5323509875" x="819.323967" y="169.2" style="stroke: #000000; stroke-width: 0.8"/>
      </g>
     </g>
     <g id="text_6">
      <!-- $\Phi(G)$ -->
      <g transform="translate(807.573967 183.798437) scale(0.1 -0.1)">
       <defs>
        <path id="DejaVuSans-3a6" d="M 2206 3644 
Q 1738 3578 1431 3306 
Q 1025 2947 1025 2328 
Q 1025 1713 1431 1353 
Q 1738 1081 2206 1016 
L 2206 3644 
z
M 2838 1016 
Q 3306 1081 3613 1353 
Q 4013 1713 4013 2328 
Q 4013 2947 3613 3306 
Q 3306 3578 2838 3644 
L 2838 1016 
z
M 2206 494 
Q 1444 563 950 981 
Q 359 1481 359 2328 
Q 359 3175 950 3678 
Q 1441 4100 2206 4169 
L 2206 4666 
L 2838 4666 
L 2838 4169 
Q 3600 4097 4091 3678 
Q 4678 3175 4678 2328 
Q 4678 1484 4091 981 
Q 3600 563 2838 491 
L 2838 0 
L 2206 0 
L 2206 494 
z
" transform="scale(0.015625)"/>
        <path id="DejaVuSans-28" d="M 1984 4856 
Q 1566 4138 1362 3434 
Q 1159 2731 1159 2009 
Q 1159 1288 1364 580 
Q 1569 -128 1984 -844 
L 1484 -844 
Q 1016 -109 783 600 
Q 550 1309 550 2009 
Q 550 2706 781 3412 
Q 1013 4119 1484 4856 
L 1984 4856 
z
" transform="scale(0.015625)"/>
        <path id="DejaVuSans-Oblique-47" d="M 3494 697 
L 3738 1919 
L 2700 1919 
L 2797 2438 
L 4453 2438 
L 4050 384 
Q 3634 156 3143 32 
Q 2653 -91 2156 -91 
Q 1278 -91 783 396 
Q 288 884 288 1753 
Q 288 2475 589 3126 
Q 891 3778 1422 4213 
Q 1756 4484 2153 4617 
Q 2550 4750 3034 4750 
Q 3472 4750 3873 4639 
Q 4275 4528 4641 4306 
L 4513 3634 
Q 4231 3928 3853 4083 
Q 3475 4238 3047 4238 
Q 2550 4238 2172 4048 
Q 1794 3859 1497 3463 
Q 1244 3125 1098 2667 
Q 953 2209 953 1734 
Q 953 1081 1287 751 
Q 1622 422 2284 422 
Q 2616 422 2925 492 
Q 3234 563 3494 697 
z
" transform="scale(0.015625)"/>
        <path id="DejaVuSans-29" d="M 513 4856 
L 1013 4856 
Q 1481 4119 1714 3412 
Q 1947 2706 1947 2009 
Q 1947 1309 1714 600 
Q 1481 -109 1013 -844 
L 513 -844 
Q 928 -128 1133 580 
Q 1338 1288 1338 2009 
Q 1338 2731 1133 3434 
Q 928 4138 513 4856 
z
" transform="scale(0.015625)"/>
       </defs>
       <use xlink:href="#DejaVuSans-3a6" transform="translate(0 0.125)"/>
       <use xlink:href="#DejaVuSans-28" transform="translate(78.710938 0.125)"/>
       <use xlink:href="#DejaVuSans-Oblique-47" transform="translate(117.724609 0.125)"/>
       <use xlink:href="#DejaVuSans-29" transform="translate(195.214844 0.125)"/>
      </g>
     </g>
    </g>
   </g>
   <g id="matplotlib.axis_2">
    <g id="ytick_1">
     <g id="line2d_6">
      <path d="M 552.109091 169.2 
L 907.2 169.2 
" clip-path="url(#p79f74e75df)" style="fill: none; stroke-dasharray: 2.96,1.28; stroke-dashoffset: 0; stroke: #000000; stroke-width: 0.8"/>
     </g>
     <g id="line2d_7">
      <defs>
       <path id="m07d606c5d6" d="M 0 0 
L -3.5 0 
" style="stroke: #000000; stroke-width: 0.8"/>
      </defs>
      <g>
       <use xlink:href="#m07d606c5d6" x="552.109091" y="169.2" style="stroke: #000000; stroke-width: 0.8"/>
      </g>
     </g>
     <g id="text_7">
      <!-- 0.0 -->
      <g transform="translate(529.205966 172.999219) scale(0.1 -0.1)">
       <defs>
        <path id="DejaVuSans-30" d="M 2034 4250 
Q 1547 4250 1301 3770 
Q 1056 3291 1056 2328 
Q 1056 1369 1301 889 
Q 1547 409 2034 409 
Q 2525 409 2770 889 
Q 3016 1369 3016 2328 
Q 3016 3291 2770 3770 
Q 2525 4250 2034 4250 
z
M 2034 4750 
Q 2819 4750 3233 4129 
Q 3647 3509 3647 2328 
Q 3647 1150 3233 529 
Q 2819 -91 2034 -91 
Q 1250 -91 836 529 
Q 422 1150 422 2328 
Q 422 3509 836 4129 
Q 1250 4750 2034 4750 
z
" transform="scale(0.015625)"/>
        <path id="DejaVuSans-2e" d="M 684 794 
L 1344 794 
L 1344 0 
L 684 0 
L 684 794 
z
" transform="scale(0.015625)"/>
       </defs>
       <use xlink:href="#DejaVuSans-30"/>
       <use xlink:href="#DejaVuSans-2e" x="63.623047"/>
       <use xlink:href="#DejaVuSans-30" x="95.410156"/>
      </g>
     </g>
    </g>
    <g id="ytick_2">
     <g id="line2d_8">
      <path d="M 552.109091 144 
L 907.2 144 
" clip-path="url(#p79f74e75df)" style="fill: none; stroke-dasharray: 2.96,1.28; stroke-dashoffset: 0; stroke: #000000; stroke-width: 0.8"/>
     </g>
     <g id="line2d_9">
      <g>
       <use xlink:href="#m07d606c5d6" x="552.109091" y="144" style="stroke: #000000; stroke-width: 0.8"/>
      </g>
     </g>
     <g id="text_8">
      <!-- 0.2 -->
      <g transform="translate(529.205966 147.799219) scale(0.1 -0.1)">
       <use xlink:href="#DejaVuSans-30"/>
       <use xlink:href="#DejaVuSans-2e" x="63.623047"/>
       <use xlink:href="#DejaVuSans-32" x="95.410156"/>
      </g>
     </g>
    </g>
    <g id="ytick_3">
     <g id="line2d_10">
      <path d="M 552.109091 118.8 
L 907.2 118.8 
" clip-path="url(#p79f74e75df)" style="fill: none; stroke-dasharray: 2.96,1.28; stroke-dashoffset: 0; stroke: #000000; stroke-width: 0.8"/>
     </g>
     <g id="line2d_11">
      <g>
       <use xlink:href="#m07d606c5d6" x="552.109091" y="118.8" style="stroke: #000000; stroke-width: 0.8"/>
      </g>
     </g>
     <g id="text_9">
      <!-- 0.4 -->
      <g transform="translate(529.205966 122.599219) scale(0.1 -0.1)">
       <defs>
        <path id="DejaVuSans-34" d="M 2419 4116 
L 825 1625 
L 2419 1625 
L 2419 4116 
z
M 2253 4666 
L 3047 4666 
L 3047 1625 
L 3713 1625 
L 3713 1100 
L 3047 1100 
L 3047 0 
L 2419 0 
L 2419 1100 
L 313 1100 
L 313 1709 
L 2253 4666 
z
" transform="scale(0.015625)"/>
       </defs>
       <use xlink:href="#DejaVuSans-30"/>
       <use xlink:href="#DejaVuSans-2e" x="63.623047"/>
       <use xlink:href="#DejaVuSans-34" x="95.410156"/>
      </g>
     </g>
    </g>
    <g id="ytick_4">
     <g id="line2d_12">
      <path d="M 552.109091 93.6 
L 907.2 93.6 
" clip-path="url(#p79f74e75df)" style="fill: none; stroke-dasharray: 2.96,1.28; stroke-dashoffset: 0; stroke: #000000; stroke-width: 0.8"/>
     </g>
     <g id="line2d_13">
      <g>
       <use xlink:href="#m07d606c5d6" x="552.109091" y="93.6" style="stroke: #000000; stroke-width: 0.8"/>
      </g>
     </g>
     <g id="text_10">
      <!-- 0.6 -->
      <g transform="translate(529.205966 97.399219) scale(0.1 -0.1)">
       <defs>
        <path id="DejaVuSans-36" d="M 2113 2584 
Q 1688 2584 1439 2293 
Q 1191 2003 1191 1497 
Q 1191 994 1439 701 
Q 1688 409 2113 409 
Q 2538 409 2786 701 
Q 3034 994 3034 1497 
Q 3034 2003 2786 2293 
Q 2538 2584 2113 2584 
z
M 3366 4563 
L 3366 3988 
Q 3128 4100 2886 4159 
Q 2644 4219 2406 4219 
Q 1781 4219 1451 3797 
Q 1122 3375 1075 2522 
Q 1259 2794 1537 2939 
Q 1816 3084 2150 3084 
Q 2853 3084 3261 2657 
Q 3669 2231 3669 1497 
Q 3669 778 3244 343 
Q 2819 -91 2113 -91 
Q 1303 -91 875 529 
Q 447 1150 447 2328 
Q 447 3434 972 4092 
Q 1497 4750 2381 4750 
Q 2619 4750 2861 4703 
Q 3103 4656 3366 4563 
z
" transform="scale(0.015625)"/>
       </defs>
       <use xlink:href="#DejaVuSans-30"/>
       <use xlink:href="#DejaVuSans-2e" x="63.623047"/>
       <use xlink:href="#DejaVuSans-36" x="95.410156"/>
      </g>
     </g>
    </g>
    <g id="ytick_5">
     <g id="line2d_14">
      <path d="M 552.109091 68.4 
L 907.2 68.4 
" clip-path="url(#p79f74e75df)" style="fill: none; stroke-dasharray: 2.96,1.28; stroke-dashoffset: 0; stroke: #000000; stroke-width: 0.8"/>
     </g>
     <g id="line2d_15">
      <g>
       <use xlink:href="#m07d606c5d6" x="552.109091" y="68.4" style="stroke: #000000; stroke-width: 0.8"/>
      </g>
     </g>
     <g id="text_11">
      <!-- 0.8 -->
      <g transform="translate(529.205966 72.199219) scale(0.1 -0.1)">
       <defs>
        <path id="DejaVuSans-38" d="M 2034 2216 
Q 1584 2216 1326 1975 
Q 1069 1734 1069 1313 
Q 1069 891 1326 650 
Q 1584 409 2034 409 
Q 2484 409 2743 651 
Q 3003 894 3003 1313 
Q 3003 1734 2745 1975 
Q 2488 2216 2034 2216 
z
M 1403 2484 
Q 997 2584 770 2862 
Q 544 3141 544 3541 
Q 544 4100 942 4425 
Q 1341 4750 2034 4750 
Q 2731 4750 3128 4425 
Q 3525 4100 3525 3541 
Q 3525 3141 3298 2862 
Q 3072 2584 2669 2484 
Q 3125 2378 3379 2068 
Q 3634 1759 3634 1313 
Q 3634 634 3220 271 
Q 2806 -91 2034 -91 
Q 1263 -91 848 271 
Q 434 634 434 1313 
Q 434 1759 690 2068 
Q 947 2378 1403 2484 
z
M 1172 3481 
Q 1172 3119 1398 2916 
Q 1625 2713 2034 2713 
Q 2441 2713 2670 2916 
Q 2900 3119 2900 3481 
Q 2900 3844 2670 4047 
Q 2441 4250 2034 4250 
Q 1625 4250 1398 4047 
Q 1172 3844 1172 3481 
z
" transform="scale(0.015625)"/>
       </defs>
       <use xlink:href="#DejaVuSans-30"/>
       <use xlink:href="#DejaVuSans-2e" x="63.623047"/>
       <use xlink:href="#DejaVuSans-38" x="95.410156"/>
      </g>
     </g>
    </g>
    <g id="ytick_6">
     <g id="line2d_16">
      <path d="M 552.109091 43.2 
L 907.2 43.2 
" clip-path="url(#p79f74e75df)" style="fill: none; stroke-dasharray: 2.96,1.28; stroke-dashoffset: 0; stroke: #000000; stroke-width: 0.8"/>
     </g>
     <g id="line2d_17">
      <g>
       <use xlink:href="#m07d606c5d6" x="552.109091" y="43.2" style="stroke: #000000; stroke-width: 0.8"/>
      </g>
     </g>
     <g id="text_12">
      <!-- 1.0 -->
      <g transform="translate(529.205966 46.999219) scale(0.1 -0.1)">
       <use xlink:href="#DejaVuSans-31"/>
       <use xlink:href="#DejaVuSans-2e" x="63.623047"/>
       <use xlink:href="#DejaVuSans-30" x="95.410156"/>
      </g>
     </g>
    </g>
   </g>
   <g id="patch_26">
    <path d="M 552.109091 169.2 
L 552.109091 43.2 
" style="fill: none; stroke: #000000; stroke-width: 0.8; stroke-linejoin: miter; stroke-linecap: square"/>
   </g>
   <g id="patch_27">
    <path d="M 907.2 169.2 
L 907.2 43.2 
" style="fill: none; stroke: #000000; stroke-width: 0.8; stroke-linejoin: miter; stroke-linecap: square"/>
   </g>
   <g id="patch_28">
    <path d="M 552.109091 169.2 
L 907.2 169.2 
" style="fill: none; stroke: #000000; stroke-width: 0.8; stroke-linejoin: miter; stroke-linecap: square"/>
   </g>
   <g id="patch_29">
    <path d="M 552.109091 43.2 
L 907.2 43.2 
" style="fill: none; stroke: #000000; stroke-width: 0.8; stroke-linejoin: miter; stroke-linecap: square"/>
   </g>
  </g>
  <g id="axes_3">
   <g id="patch_30">
    <path d="M 308.646849 254.44516 
Q 283.127071 241.511557 257.607292 228.577954 
" clip-path="url(#p3086f96d3c)" style="fill: none; stroke: #ff0000; stroke-width: 2; stroke-linecap: round"/>
   </g>
   <g id="patch_31">
    <path d="M 309.454606 260.691602 
Q 288.509302 279.347251 267.563998 298.0029 
" clip-path="url(#p3086f96d3c)" style="fill: none; stroke: #ff0000; stroke-width: 2; stroke-linecap: round"/>
   </g>
   <g id="patch_32">
    <path d="M 319.185236 256.33578 
Q 355.856707 252.13897 392.528179 247.942161 
" clip-path="url(#p3086f96d3c)" style="fill: none; stroke: #000000; stroke-linecap: round"/>
   </g>
   <g id="patch_33">
    <path d="M 317.533034 252.967854 
Q 334.224526 235.840366 350.916019 218.712879 
" clip-path="url(#p3086f96d3c)" style="fill: none; stroke: #000000; stroke-linecap: round"/>
   </g>
   <g id="patch_34">
    <path d="M 314.752774 251.497087 
Q 319.054712 230.495572 323.356651 209.494057 
" clip-path="url(#p3086f96d3c)" style="fill: none; stroke: #000000; stroke-linecap: round"/>
   </g>
   <g id="patch_35">
    <path d="M 244.960088 229.36443 
Q 216.060203 248.861036 187.160318 268.357642 
" clip-path="url(#p3086f96d3c)" style="fill: none; stroke: #000000; stroke-linecap: round"/>
   </g>
   <g id="patch_36">
    <path d="M 252.347943 232.485976 
Q 258.108357 264.604954 263.868771 296.723933 
" clip-path="url(#p3086f96d3c)" style="fill: none; stroke: #000000; stroke-linecap: round"/>
   </g>
   <g id="patch_37">
    <path d="M 243.864268 223.735978 
Q 201.031008 214.681225 158.197749 205.626471 
" clip-path="url(#p3086f96d3c)" style="fill: none; stroke: #000000; stroke-linecap: round"/>
   </g>
   <g id="patch_38">
    <path d="M 258.150509 223.343933 
Q 289.223354 214.978394 320.296199 206.612854 
" clip-path="url(#p3086f96d3c)" style="fill: none; stroke: #ff0000; stroke-width: 2; stroke-linecap: round"/>
   </g>
   <g id="patch_39">
    <path d="M 258.366401 224.584816 
Q 304.046138 220.39833 349.725875 216.211843 
" clip-path="url(#p3086f96d3c)" style="fill: none; stroke: #ff0000; stroke-width: 2; stroke-linecap: round"/>
   </g>
   <g id="patch_40">
    <path d="M 187.425965 270.750443 
Q 224.134871 284.984081 260.843777 299.21772 
" clip-path="url(#p3086f96d3c)" style="fill: none; stroke: #000000; stroke-linecap: round"/>
   </g>
   <g id="patch_41">
    <path d="M 183.96395 267.430784 
Q 170.671351 237.028545 157.378752 206.626306 
" clip-path="url(#p3086f96d3c)" style="fill: none; stroke: #000000; stroke-linecap: round"/>
   </g>
   <g id="patch_42">
    <path d="M 268.555128 300.264953 
Q 313.90169 295.710138 359.248252 291.155322 
" clip-path="url(#p3086f96d3c)" style="fill: none; stroke: #ff0000; stroke-width: 2; stroke-linecap: round"/>
   </g>
   <g id="patch_43">
    <path d="M 393.214389 244.55955 
Q 360.429948 226.050054 327.645508 207.540558 
" clip-path="url(#p3086f96d3c)" style="fill: none; stroke: #000000; stroke-linecap: round"/>
   </g>
   <g id="patch_44">
    <path d="M 393.522403 244.07512 
Q 375.247531 231.117892 356.972658 218.160664 
" clip-path="url(#p3086f96d3c)" style="fill: none; stroke: #000000; stroke-linecap: round"/>
   </g>
   <g id="patch_45">
    <path d="M 394.674767 251.73775 
Q 381.445262 268.950855 368.215756 286.163961 
" clip-path="url(#p3086f96d3c)" style="fill: none; stroke: #000000; stroke-linecap: round"/>
   </g>
   <g id="patch_46">
    <path d="M 401.677126 251.590077 
Q 425.521851 279.985862 449.366576 308.381646 
" clip-path="url(#p3086f96d3c)" style="fill: none; stroke: #000000; stroke-linecap: round"/>
   </g>
   <g id="patch_47">
    <path d="M 325.885452 209.181923 
Q 344.142058 247.368748 362.398664 285.555573 
" clip-path="url(#p3086f96d3c)" style="fill: none; stroke: #000000; stroke-linecap: round"/>
   </g>
   <g id="patch_48">
    <path d="M 354.296524 219.802363 
Q 359.142349 252.436332 363.988175 285.070301 
" clip-path="url(#p3086f96d3c)" style="fill: none; stroke: #000000; stroke-linecap: round"/>
   </g>
   <g id="patch_49">
    <path d="M 370.267955 291.802041 
Q 409.582818 300.481792 448.897681 309.161544 
" clip-path="url(#p3086f96d3c)" style="fill: none; stroke: #000000; stroke-linecap: round"/>
   </g>
   <g id="PathCollection_2">
    <path d="M 313.631423 262.561547 
C 315.113954 262.561547 316.535963 261.972532 317.58427 260.924224 
C 318.632578 259.875917 319.221593 258.453908 319.221593 256.971377 
C 319.221593 255.488847 318.632578 254.066837 317.58427 253.01853 
C 316.535963 251.970223 315.113954 251.381207 313.631423 251.381207 
C 312.148893 251.381207 310.726884 251.970223 309.678576 253.01853 
C 308.630269 254.066837 308.041253 255.488847 308.041253 256.971377 
C 308.041253 258.453908 308.630269 259.875917 309.678576 260.924224 
C 310.726884 261.972532 312.148893 262.561547 313.631423 262.561547 
z
" clip-path="url(#p3086f96d3c)" style="fill: #191919; stroke: #000000"/>
    <path d="M 251.05114 232.603719 
C 252.999977 232.603719 254.869257 231.829438 256.247293 230.451402 
C 257.625328 229.073366 258.399609 227.204087 258.399609 225.25525 
C 258.399609 223.306413 257.625328 221.437133 256.247293 220.059097 
C 254.869257 218.681062 252.999977 217.906781 251.05114 217.906781 
C 249.102303 217.906781 247.233023 218.681062 245.854988 220.059097 
C 244.476952 221.437133 243.702671 223.306413 243.702671 225.25525 
C 243.702671 227.204087 244.476952 229.073366 245.854988 230.451402 
C 247.233023 231.829438 249.102303 232.603719 251.05114 232.603719 
z
" clip-path="url(#p3086f96d3c)" style="fill: #ffffff; stroke: #000000"/>
    <path d="M 185.004948 272.409786 
C 185.693966 272.409786 186.354856 272.136036 186.842066 271.648827 
C 187.329275 271.161617 187.603024 270.500727 187.603024 269.811709 
C 187.603024 269.122691 187.329275 268.461801 186.842066 267.974592 
C 186.354856 267.487383 185.693966 267.213633 185.004948 267.213633 
C 184.31593 267.213633 183.65504 267.487383 183.167831 267.974592 
C 182.680622 268.461801 182.406872 269.122691 182.406872 269.811709 
C 182.406872 270.500727 182.680622 271.161617 183.167831 271.648827 
C 183.65504 272.136036 184.31593 272.409786 185.004948 272.409786 
z
" clip-path="url(#p3086f96d3c)" style="fill: #ffffff; stroke: #000000"/>
    <path d="M 264.575529 304.664682 
C 265.636342 304.664682 266.653849 304.243217 267.403956 303.493109 
C 268.154064 302.743002 268.575529 301.725495 268.575529 300.664682 
C 268.575529 299.60387 268.154064 298.586363 267.403956 297.836255 
C 266.653849 297.086147 265.636342 296.664682 264.575529 296.664682 
C 263.514717 296.664682 262.49721 297.086147 261.747102 297.836255 
C 260.996994 298.586363 260.575529 299.60387 260.575529 300.664682 
C 260.575529 301.725495 260.996994 302.743002 261.747102 303.493109 
C 262.49721 304.243217 263.514717 304.664682 264.575529 304.664682 
z
" clip-path="url(#p3086f96d3c)" style="fill: #ffffff; stroke: #000000"/>
    <path d="M 156.813674 206.748098 
C 157.188728 206.748098 157.548471 206.599087 157.813674 206.333884 
C 158.078877 206.068681 158.227887 205.708938 158.227887 205.333884 
C 158.227887 204.95883 158.078877 204.599087 157.813674 204.333884 
C 157.548471 204.068681 157.188728 203.919671 156.813674 203.919671 
C 156.43862 203.919671 156.078877 204.068681 155.813674 204.333884 
C 155.548471 204.599087 155.39946 204.95883 155.39946 205.333884 
C 155.39946 205.708938 155.548471 206.068681 155.813674 206.333884 
C 156.078877 206.599087 156.43862 206.748098 156.813674 206.748098 
z
" clip-path="url(#p3086f96d3c)" style="fill: #ffffff; stroke: #000000"/>
    <path d="M 398.080303 252.896927 
C 399.562834 252.896927 400.984843 252.307911 402.03315 251.259604 
C 403.081458 250.211297 403.670473 248.789287 403.670473 247.306757 
C 403.670473 245.824226 403.081458 244.402217 402.03315 243.35391 
C 400.984843 242.305602 399.562834 241.716587 398.080303 241.716587 
C 396.597773 241.716587 395.175764 242.305602 394.127456 243.35391 
C 393.079149 244.402217 392.490133 245.824226 392.490133 247.306757 
C 392.490133 248.789287 393.079149 250.211297 394.127456 251.259604 
C 395.175764 252.307911 396.597773 252.896927 398.080303 252.896927 
z
" clip-path="url(#p3086f96d3c)" style="fill: #191919; stroke: #000000"/>
    <path d="M 324.159909 209.572653 
C 325.220721 209.572653 326.238228 209.151187 326.988336 208.40108 
C 327.738443 207.650972 328.159909 206.633465 328.159909 205.572653 
C 328.159909 204.51184 327.738443 203.494333 326.988336 202.744226 
C 326.238228 201.994118 325.220721 201.572653 324.159909 201.572653 
C 323.099096 201.572653 322.081589 201.994118 321.331482 202.744226 
C 320.581374 203.494333 320.159909 204.51184 320.159909 205.572653 
C 320.159909 206.633465 320.581374 207.650972 321.331482 208.40108 
C 322.081589 209.151187 323.099096 209.572653 324.159909 209.572653 
z
" clip-path="url(#p3086f96d3c)" style="fill: #191919; stroke: #000000"/>
    <path d="M 353.709158 219.846781 
C 354.769971 219.846781 355.787478 219.425316 356.537585 218.675208 
C 357.287693 217.9251 357.709158 216.907593 357.709158 215.846781 
C 357.709158 214.785969 357.287693 213.768461 356.537585 213.018354 
C 355.787478 212.268246 354.769971 211.846781 353.709158 211.846781 
C 352.648346 211.846781 351.630839 212.268246 350.880731 213.018354 
C 350.130623 213.768461 349.709158 214.785969 349.709158 215.846781 
C 349.709158 216.907593 350.130623 217.9251 350.880731 218.675208 
C 351.630839 219.425316 352.648346 219.846781 353.709158 219.846781 
z
" clip-path="url(#p3086f96d3c)" style="fill: #191919; stroke: #000000"/>
    <path d="M 364.808805 296.186965 
C 366.291335 296.186965 367.713345 295.597949 368.761652 294.549642 
C 369.809959 293.501335 370.398975 292.079325 370.398975 290.596795 
C 370.398975 289.114265 369.809959 287.692255 368.761652 286.643948 
C 367.713345 285.595641 366.291335 285.006625 364.808805 285.006625 
C 363.326274 285.006625 361.904265 285.595641 360.855958 286.643948 
C 359.80765 287.692255 359.218635 289.114265 359.218635 290.596795 
C 359.218635 292.079325 359.80765 293.501335 360.855958 294.549642 
C 361.904265 295.597949 363.326274 296.186965 364.808805 296.186965 
z
" clip-path="url(#p3086f96d3c)" style="fill: #191919; stroke: #000000"/>
    <path d="M 450.277235 310.880329 
C 450.652289 310.880329 451.012032 310.731319 451.277235 310.466116 
C 451.542438 310.200913 451.691449 309.84117 451.691449 309.466116 
C 451.691449 309.091062 451.542438 308.731319 451.277235 308.466116 
C 451.012032 308.200913 450.652289 308.051902 450.277235 308.051902 
C 449.902181 308.051902 449.542438 308.200913 449.277235 308.466116 
C 449.012032 308.731319 448.863022 309.091062 448.863022 309.466116 
C 448.863022 309.84117 449.012032 310.200913 449.277235 310.466116 
C 449.542438 310.731319 449.902181 310.880329 450.277235 310.880329 
z
" clip-path="url(#p3086f96d3c)" style="fill: #191919; stroke: #000000"/>
   </g>
  </g>
  <g id="axes_4">
   <g id="patch_50">
    <path d="M 552.109091 320.4 
L 907.2 320.4 
L 907.2 194.4 
L 552.109091 194.4 
z
" style="fill: #ffffff"/>
   </g>
   <g id="patch_51">
    <path d="M 568.249587 320.4 
L 711.720661 320.4 
L 711.720661 206.378715 
L 568.249587 206.378715 
z
" clip-path="url(#pc59cbaa1fa)"/>
   </g>
   <g id="patch_52">
    <path d="M 747.58843 320.4 
L 891.059504 320.4 
L 891.059504 278.4 
L 747.58843 278.4 
z
" clip-path="url(#pc59cbaa1fa)"/>
   </g>
   <g id="matplotlib.axis_3">
    <g id="xtick_3">
     <g id="line2d_18">
      <g>
       <use xlink:href="#m5323509875" x="639.985124" y="320.4" style="stroke: #000000; stroke-width: 0.8"/>
      </g>
     </g>
     <g id="text_13">
      <!-- $\lambda_2$ -->
      <g transform="translate(634.635124 334.998438) scale(0.1 -0.1)">
       <use xlink:href="#DejaVuSans-Oblique-3bb" transform="translate(0 0.015625)"/>
       <use xlink:href="#DejaVuSans-32" transform="translate(59.179688 -16.390625) scale(0.7)"/>
      </g>
     </g>
    </g>
    <g id="xtick_4">
     <g id="line2d_19">
      <g>
       <use xlink:href="#m5323509875" x="819.323967" y="320.4" style="stroke: #000000; stroke-width: 0.8"/>
      </g>
     </g>
     <g id="text_14">
      <!-- $\Phi(G)$ -->
      <g transform="translate(807.573967 334.998438) scale(0.1 -0.1)">
       <use xlink:href="#DejaVuSans-3a6" transform="translate(0 0.125)"/>
       <use xlink:href="#DejaVuSans-28" transform="translate(78.710938 0.125)"/>
       <use xlink:href="#DejaVuSans-Oblique-47" transform="translate(117.724609 0.125)"/>
       <use xlink:href="#DejaVuSans-29" transform="translate(195.214844 0.125)"/>
      </g>
     </g>
    </g>
   </g>
   <g id="matplotlib.axis_4">
    <g id="ytick_7">
     <g id="line2d_20">
      <path d="M 552.109091 320.4 
L 907.2 320.4 
" clip-path="url(#pc59cbaa1fa)" style="fill: none; stroke-dasharray: 2.96,1.28; stroke-dashoffset: 0; stroke: #000000; stroke-width: 0.8"/>
     </g>
     <g id="line2d_21">
      <g>
       <use xlink:href="#m07d606c5d6" x="552.109091" y="320.4" style="stroke: #000000; stroke-width: 0.8"/>
      </g>
     </g>
     <g id="text_15">
      <!-- 0.0 -->
      <g transform="translate(529.205966 324.199219) scale(0.1 -0.1)">
       <use xlink:href="#DejaVuSans-30"/>
       <use xlink:href="#DejaVuSans-2e" x="63.623047"/>
       <use xlink:href="#DejaVuSans-30" x="95.410156"/>
      </g>
     </g>
    </g>
    <g id="ytick_8">
     <g id="line2d_22">
      <path d="M 552.109091 295.2 
L 907.2 295.2 
" clip-path="url(#pc59cbaa1fa)" style="fill: none; stroke-dasharray: 2.96,1.28; stroke-dashoffset: 0; stroke: #000000; stroke-width: 0.8"/>
     </g>
     <g id="line2d_23">
      <g>
       <use xlink:href="#m07d606c5d6" x="552.109091" y="295.2" style="stroke: #000000; stroke-width: 0.8"/>
      </g>
     </g>
     <g id="text_16">
      <!-- 0.2 -->
      <g transform="translate(529.205966 298.999219) scale(0.1 -0.1)">
       <use xlink:href="#DejaVuSans-30"/>
       <use xlink:href="#DejaVuSans-2e" x="63.623047"/>
       <use xlink:href="#DejaVuSans-32" x="95.410156"/>
      </g>
     </g>
    </g>
    <g id="ytick_9">
     <g id="line2d_24">
      <path d="M 552.109091 270 
L 907.2 270 
" clip-path="url(#pc59cbaa1fa)" style="fill: none; stroke-dasharray: 2.96,1.28; stroke-dashoffset: 0; stroke: #000000; stroke-width: 0.8"/>
     </g>
     <g id="line2d_25">
      <g>
       <use xlink:href="#m07d606c5d6" x="552.109091" y="270" style="stroke: #000000; stroke-width: 0.8"/>
      </g>
     </g>
     <g id="text_17">
      <!-- 0.4 -->
      <g transform="translate(529.205966 273.799219) scale(0.1 -0.1)">
       <use xlink:href="#DejaVuSans-30"/>
       <use xlink:href="#DejaVuSans-2e" x="63.623047"/>
       <use xlink:href="#DejaVuSans-34" x="95.410156"/>
      </g>
     </g>
    </g>
    <g id="ytick_10">
     <g id="line2d_26">
      <path d="M 552.109091 244.8 
L 907.2 244.8 
" clip-path="url(#pc59cbaa1fa)" style="fill: none; stroke-dasharray: 2.96,1.28; stroke-dashoffset: 0; stroke: #000000; stroke-width: 0.8"/>
     </g>
     <g id="line2d_27">
      <g>
       <use xlink:href="#m07d606c5d6" x="552.109091" y="244.8" style="stroke: #000000; stroke-width: 0.8"/>
      </g>
     </g>
     <g id="text_18">
      <!-- 0.6 -->
      <g transform="translate(529.205966 248.599219) scale(0.1 -0.1)">
       <use xlink:href="#DejaVuSans-30"/>
       <use xlink:href="#DejaVuSans-2e" x="63.623047"/>
       <use xlink:href="#DejaVuSans-36" x="95.410156"/>
      </g>
     </g>
    </g>
    <g id="ytick_11">
     <g id="line2d_28">
      <path d="M 552.109091 219.6 
L 907.2 219.6 
" clip-path="url(#pc59cbaa1fa)" style="fill: none; stroke-dasharray: 2.96,1.28; stroke-dashoffset: 0; stroke: #000000; stroke-width: 0.8"/>
     </g>
     <g id="line2d_29">
      <g>
       <use xlink:href="#m07d606c5d6" x="552.109091" y="219.6" style="stroke: #000000; stroke-width: 0.8"/>
      </g>
     </g>
     <g id="text_19">
      <!-- 0.8 -->
      <g transform="translate(529.205966 223.399219) scale(0.1 -0.1)">
       <use xlink:href="#DejaVuSans-30"/>
       <use xlink:href="#DejaVuSans-2e" x="63.623047"/>
       <use xlink:href="#DejaVuSans-38" x="95.410156"/>
      </g>
     </g>
    </g>
    <g id="ytick_12">
     <g id="line2d_30">
      <path d="M 552.109091 194.4 
L 907.2 194.4 
" clip-path="url(#pc59cbaa1fa)" style="fill: none; stroke-dasharray: 2.96,1.28; stroke-dashoffset: 0; stroke: #000000; stroke-width: 0.8"/>
     </g>
     <g id="line2d_31">
      <g>
       <use xlink:href="#m07d606c5d6" x="552.109091" y="194.4" style="stroke: #000000; stroke-width: 0.8"/>
      </g>
     </g>
     <g id="text_20">
      <!-- 1.0 -->
      <g transform="translate(529.205966 198.199219) scale(0.1 -0.1)">
       <use xlink:href="#DejaVuSans-31"/>
       <use xlink:href="#DejaVuSans-2e" x="63.623047"/>
       <use xlink:href="#DejaVuSans-30" x="95.410156"/>
      </g>
     </g>
    </g>
   </g>
   <g id="patch_53">
    <path d="M 552.109091 320.4 
L 552.109091 194.4 
" style="fill: none; stroke: #000000; stroke-width: 0.8; stroke-linejoin: miter; stroke-linecap: square"/>
   </g>
   <g id="patch_54">
    <path d="M 907.2 320.4 
L 907.2 194.4 
" style="fill: none; stroke: #000000; stroke-width: 0.8; stroke-linejoin: miter; stroke-linecap: square"/>
   </g>
   <g id="patch_55">
    <path d="M 552.109091 320.4 
L 907.2 320.4 
" style="fill: none; stroke: #000000; stroke-width: 0.8; stroke-linejoin: miter; stroke-linecap: square"/>
   </g>
   <g id="patch_56">
    <path d="M 552.109091 194.4 
L 907.2 194.4 
" style="fill: none; stroke: #000000; stroke-width: 0.8; stroke-linejoin: miter; stroke-linecap: square"/>
   </g>
  </g>
 </g>
 <defs>
  <clipPath id="p6fa7aa3789">
   <rect x="126" y="43.2" width="355.090909" height="126"/>
  </clipPath>
  <clipPath id="p79f74e75df">
   <rect x="552.109091" y="43.2" width="355.090909" height="126"/>
  </clipPath>
  <clipPath id="p3086f96d3c">
   <rect x="126" y="194.4" width="355.090909" height="126"/>
  </clipPath>
  <clipPath id="pc59cbaa1fa">
   <rect x="552.109091" y="194.4" width="355.090909" height="126"/>
  </clipPath>
 </defs>
</svg>
